<svg width="58" height="61" viewBox="0 0 58 61" fill="none" xmlns="http://www.w3.org/2000/svg">
<ellipse cx="29" cy="29.5" rx="29" ry="29.5" fill="#D9D9D9"/>
<g clip-path="url(#clip0_86_1579)">
<path d="M29 33C15.5 33 13 50.0589 13 60H44C44 50.0589 42.5 33 29 33Z" fill="white"/>
<circle cx="28.5" cy="21.5" r="7.5" fill="white"/>
<path fill-rule="evenodd" clip-rule="evenodd" d="M17.9638 38H18.2469C19.3825 38 20.6021 38.6091 21.7429 39.4207C22.9002 40.244 24.0536 41.3323 25.0709 42.4061C26.0904 43.4823 26.9848 44.5566 27.6237 45.3608C27.8768 45.6794 28.0903 45.9561 28.256 46.1745C28.4305 45.9548 28.6565 45.6749 28.9253 45.352C29.5947 44.5478 30.532 43.4736 31.6011 42.3976C32.668 41.3237 33.8777 40.2363 35.0922 39.4141C36.2918 38.6019 37.5657 38 38.7469 38H39.03L40.6942 40.7737L40.7081 40.8069L40.2469 41C40.7081 40.8069 40.7081 40.8069 40.7081 40.8069L40.7101 40.8117L40.7153 40.8242L40.735 40.872C40.7521 40.9138 40.7771 40.9753 40.8091 41.0551C40.873 41.2146 40.9647 41.4474 41.0767 41.7425C41.3006 42.3324 41.6061 43.1719 41.9331 44.1728C42.586 46.1708 43.3305 48.8283 43.68 51.4335C44.0262 54.0148 44.0005 56.6497 43.0096 58.53C42.5047 59.4879 41.7482 60.2515 40.6787 60.6978C39.618 61.1404 38.6236 65.7598 37 65.5C33.8708 64.9993 32.6121 66.5919 31.6011 66.5C30.6079 66.4097 29.7856 63.6905 29.5 63.7858C29.3336 66.8472 27.6237 64.5 27.6237 64.5C27.2758 64.623 27.4531 63.6458 26.4172 63.7858C25.2282 63.9464 24.1303 61 20.7469 61C17.2357 61 15.1046 59.7187 13.9887 57.6945C12.9017 55.7227 12.8407 53.1518 13.1893 50.6802C13.5401 48.1926 14.3189 45.7174 15.0048 43.8726C15.3485 42.9482 15.6705 42.1776 15.907 41.6374C16.0253 41.3672 16.1223 41.1544 16.19 41.0085C16.2238 40.9356 16.2504 40.8793 16.2686 40.841L16.2896 40.7971L16.2952 40.7856L16.2972 40.7815C16.2972 40.7815 16.2974 40.781 16.7469 41L16.2972 40.7815L16.307 40.7614L17.9638 38Z" fill="black"/>
<path fill-rule="evenodd" clip-rule="evenodd" d="M30.6646 12.3905C30.4166 12.2077 30.1754 12.132 30.112 12.1136C29.8469 12.0362 29.5989 12.0304 29.4784 12.0302C29.2039 12.0296 28.9442 12.066 28.8549 12.081C28.4096 12.1558 27.8894 12.3196 27.4161 12.6173C26.9421 12.9154 26.4116 13.4183 26.1924 14.1911C25.9575 15.0197 26.2372 15.7698 26.6158 16.2618C26.9863 16.7436 27.5541 17.1258 28.2163 17.2392C28.9124 17.3584 29.5909 17.1711 29.8936 17.0876C29.9131 17.0822 29.9311 17.0772 29.9473 17.0728C30.0589 17.0426 30.1636 17.0136 30.2628 16.9862C30.6343 16.8835 30.9294 16.8018 31.2265 16.7529C31.3258 16.7365 31.4702 16.7301 31.6292 16.7479C31.7411 16.7604 31.8371 16.7823 31.9127 16.8071C31.9072 16.8248 31.9011 16.8439 31.8943 16.8647C31.8855 16.892 31.8708 16.9348 31.8529 16.9873C31.8043 17.1295 31.7318 17.3421 31.6854 17.5033C31.5392 18.0121 31.3398 18.9746 31.9753 19.9092C32.6031 20.8323 33.6146 20.8748 34.0114 20.8723C34.2014 20.8711 34.4017 20.8553 34.5287 20.8453C34.5519 20.8435 34.5726 20.8419 34.5903 20.8406C34.7155 20.8313 34.7573 20.8318 34.7587 20.8313C34.8707 20.8449 34.9708 20.8871 35.0334 20.9325C35.0596 20.9516 35.072 20.9653 35.077 20.9721C35.121 21.1493 35.0689 21.3329 35.0333 21.3835C34.9143 21.5528 34.7797 21.707 34.5838 21.9314C34.5556 21.9638 34.5261 21.9976 34.4952 22.0331C34.2735 22.2877 33.9829 22.6277 33.7356 23.0388C33.4438 23.524 33.3039 24.0359 33.2184 24.3488C33.2122 24.3713 33.2064 24.3927 33.2008 24.4131C33.0682 24.8931 32.9163 25.6147 33.2148 26.4434C33.604 27.524 34.4994 28.0446 35.2595 28.2549C36.0001 28.4598 36.7727 28.4297 37.3738 28.3078C38.1256 28.1552 38.9185 27.818 39.5673 27.2697C39.8195 27.0567 40.1206 26.7505 40.3601 26.3681C40.5909 25.9996 40.8553 25.412 40.7728 24.7035C40.766 24.6453 40.7572 24.5883 40.7464 24.5326C40.8317 24.0996 40.8405 23.6549 40.7743 23.2212C40.7014 22.744 40.4578 22.1443 40.0124 21.7153C39.8736 21.5816 39.7367 21.4835 39.6349 21.416C39.5785 21.3787 39.5194 21.3423 39.4721 21.3137C39.4673 21.2468 39.4662 21.1609 39.4694 21.0423C39.4712 20.9781 39.4739 20.9123 39.4771 20.8357L39.4775 20.8268C39.4805 20.756 39.484 20.6741 39.4862 20.5923C39.487 20.5635 39.4881 20.5326 39.4892 20.4996C39.5043 20.0494 39.5318 19.2266 39.1371 18.4263C38.6319 17.4017 37.7268 16.7666 36.8464 16.4432C36.317 16.2488 35.7866 16.151 35.3371 16.084C35.3084 15.1704 35.0338 13.9166 33.8568 13.1599C32.7704 12.4615 31.5158 12.3961 30.6646 12.3905ZM35.316 16.7965C35.316 16.7964 35.316 16.7958 35.316 16.7946C35.3161 16.7958 35.316 16.7965 35.316 16.7965ZM39.4862 21.4169C39.4862 21.4169 39.486 21.4164 39.4857 21.4154L39.4862 21.4169ZM35.08 20.9769C35.0799 20.977 35.0791 20.9759 35.0781 20.9736C35.0796 20.9758 35.0801 20.9769 35.08 20.9769ZM32.0569 16.8726C32.0569 16.8726 32.0566 16.8723 32.056 16.8718L32.0569 16.8726ZM36.7666 24.5926C36.7649 24.5928 36.7641 24.5928 36.7641 24.5928L36.7666 24.5926Z" fill="black"/>
<path fill-rule="evenodd" clip-rule="evenodd" d="M24.236 12.8023C24.9541 12.5319 25.633 12.5246 26.1535 12.5459C26.1565 12.546 26.1619 12.5461 26.1693 12.5462C26.2715 12.5478 26.768 12.5555 27.2145 12.7656C27.2161 12.7663 27.2181 12.7672 27.2203 12.7683C27.2552 12.7846 27.3693 12.838 27.4871 12.9092C27.489 12.9103 27.4912 12.9117 27.4938 12.9132C27.5696 12.9587 27.9099 13.1628 28.1314 13.5566C28.5376 14.2786 28.2815 15.1932 27.5594 15.5994C27.2696 15.7624 26.9487 15.8187 26.6421 15.781C26.5931 15.9587 26.5221 16.1145 26.4488 16.2422C26.0797 16.886 25.4495 17.1025 25.2037 17.1753C24.8936 17.2672 24.5971 17.2956 24.4521 17.3078C24.2561 17.3243 23.9711 17.3305 23.6544 17.2646C23.7358 17.5372 23.8695 17.9945 23.8815 18.4994C23.9065 19.5573 23.3721 20.583 22.6963 21.2576C22.0137 21.939 20.8185 22.5959 19.4586 22.1127C18.7142 21.8483 17.6247 21.0167 17.845 19.5795C18.0044 18.5402 18.7404 17.8223 19.5937 17.5379C19.9446 17.4209 20.3081 17.4408 20.6264 17.5686C20.5688 17.3201 20.5195 17.022 20.5195 16.7029C20.5195 16.0128 20.7287 15.3547 21.0078 14.8331C21.4259 14.0518 22.0899 13.7815 22.5193 13.6498C22.6399 13.6128 22.7617 13.5819 22.8837 13.5562C23.0494 13.4162 23.2144 13.3058 23.3559 13.2205C23.6724 13.0299 23.9931 12.8937 24.236 12.8023ZM24.5297 16.4626C24.5304 16.4626 24.5309 16.4627 24.5312 16.4627L24.5315 16.4627C24.5309 16.4627 24.5303 16.4626 24.5297 16.4626ZM24.8166 15.8506C24.8159 15.8513 24.8155 15.8516 24.8155 15.8516L24.8166 15.8506Z" fill="black"/>
<path fill-rule="evenodd" clip-rule="evenodd" d="M21.8278 19.3697C22.601 19.6671 22.9868 20.535 22.6894 21.3082C22.6629 21.3771 22.6341 21.4552 22.6026 21.5405C22.446 21.9655 22.2237 22.5685 21.8904 23.1027C21.8838 23.1133 21.8772 23.1239 21.8705 23.1344C22.2042 23.2171 22.6342 23.3935 22.9894 23.7731C23.6403 24.4689 23.7551 25.4037 23.6873 26.0728C23.6198 26.7398 23.3193 27.6436 22.5221 28.1916C22.2978 28.3457 22.0062 28.5139 21.683 28.6442C21.3836 28.7648 20.922 28.9086 20.4057 28.8704C19.8326 28.828 19.3605 28.5859 19.0335 28.3584C18.6967 28.1241 18.4118 27.8352 18.1989 27.5496C17.2424 26.2665 17.4584 24.7159 17.8476 23.7079C18.088 23.0853 18.4568 22.6163 18.7308 22.2868C18.8096 22.1921 18.8786 22.1106 18.9399 22.0382C19.1236 21.8212 19.239 21.6849 19.345 21.5149C19.5014 21.2642 19.5949 21.0143 19.7437 20.6165C19.7867 20.5016 19.8343 20.3744 19.8893 20.2312C20.1867 19.458 21.0546 19.0723 21.8278 19.3697Z" fill="black"/>
<path d="M25.7273 21.2449C25.7273 21.8571 27.4849 21.8571 27.4849 21.2449" stroke="black" stroke-width="0.6" stroke-linecap="round"/>
<path d="M29.6362 21.2449C29.6362 21.8571 31.3938 21.8571 31.3938 21.2449" stroke="black" stroke-width="0.6" stroke-linecap="round"/>
<path d="M27 26C27 26 28 27 29.5 26.5C31 26 31 25 31 25L29 25.5L27 26Z" fill="black"/>
<path d="M27 26L26.8787 25.5149C26.704 25.5586 26.5662 25.6929 26.5181 25.8665C26.4701 26.0401 26.5191 26.2262 26.6464 26.3536L27 26ZM31 25H31.5C31.5 24.846 31.4291 24.7007 31.3077 24.6059C31.1863 24.5111 31.0281 24.4776 30.8787 24.5149L31 25ZM27 26C26.6464 26.3536 26.6466 26.3537 26.6468 26.3539C26.6469 26.354 26.6471 26.3542 26.6472 26.3543C26.6474 26.3546 26.6477 26.3548 26.648 26.3551C26.6486 26.3557 26.6493 26.3564 26.65 26.3571C26.6514 26.3585 26.6531 26.3601 26.6551 26.362C26.659 26.3658 26.6639 26.3705 26.6698 26.3761C26.6817 26.3872 26.6976 26.4017 26.7175 26.419C26.7572 26.4536 26.8131 26.4996 26.884 26.5516C27.0254 26.6553 27.2302 26.7855 27.4905 26.8971C28.0165 27.1225 28.7692 27.2706 29.6581 26.9743L29.3419 26.0257C28.7308 26.2294 28.2335 26.1275 27.8845 25.9779C27.7073 25.902 27.5684 25.8134 27.4754 25.7452C27.4291 25.7113 27.3951 25.6831 27.3743 25.665C27.3639 25.6559 27.3569 25.6495 27.3534 25.6462C27.3516 25.6445 27.3507 25.6437 27.3508 25.6437C27.3508 25.6437 27.351 25.6439 27.3515 25.6444C27.3517 25.6446 27.352 25.6449 27.3523 25.6452C27.3525 25.6454 27.3527 25.6456 27.3529 25.6458C27.353 25.6459 27.3532 25.6461 27.3532 25.6461C27.3534 25.6463 27.3536 25.6464 27 26ZM29.6581 26.9743C30.511 26.69 30.987 26.2436 31.2412 25.8197C31.3655 25.6126 31.4302 25.4219 31.4638 25.2765C31.4805 25.2039 31.4896 25.1424 31.4944 25.0954C31.4968 25.0719 31.4982 25.0519 31.499 25.0359C31.4994 25.0279 31.4997 25.0209 31.4998 25.0149C31.4999 25.0119 31.4999 25.0091 31.5 25.0067C31.5 25.0054 31.5 25.0042 31.5 25.0031C31.5 25.0026 31.5 25.002 31.5 25.0015C31.5 25.0013 31.5 25.0009 31.5 25.0007C31.5 25.0004 31.5 25 31 25C30.5 25 30.5 24.9996 30.5 24.9993C30.5 24.9992 30.5 24.9988 30.5 24.9986C30.5 24.9981 30.5 24.9977 30.5 24.9972C30.5 24.9964 30.5 24.9956 30.5 24.9948C30.5 24.9933 30.5001 24.992 30.5001 24.9909C30.5002 24.9887 30.5002 24.9874 30.5002 24.9868C30.5003 24.9857 30.5002 24.9877 30.4997 24.9925C30.4987 25.0022 30.496 25.0227 30.4894 25.0516C30.476 25.1094 30.447 25.1999 30.3838 25.3053C30.263 25.5064 29.989 25.81 29.3419 26.0257L29.6581 26.9743ZM27.1213 26.4851L29.1213 25.9851L28.8787 25.0149L26.8787 25.5149L27.1213 26.4851ZM29.1213 25.9851L31.1213 25.4851L30.8787 24.5149L28.8787 25.0149L29.1213 25.9851Z" fill="black"/>
<path d="M43.1497 31.553C43.1893 31.6177 43.2582 31.669 43.3101 31.724C44.6297 32.9125 46.4547 34.2046 46.4547 34.2046C46.4547 34.2046 48.2797 35.4966 49.1922 36.1426" stroke="#E37D2F" stroke-linecap="round"/>
<path d="M41.8291 29.9351C41.9697 30.0385 42.0816 30.1295 42.169 30.2249C42.3377 30.4093 42.4508 30.6207 42.5011 30.8173C42.5146 30.8701 42.5236 30.9131 42.5277 30.9504C42.5302 30.9727 42.5304 30.9884 42.5299 30.9987C42.5245 31.0017 42.5172 31.0054 42.5075 31.0095C42.4701 31.0255 42.4038 31.0377 42.3187 31.0299C42.242 31.0228 42.1825 31.0024 42.1513 30.9866C42.1496 30.9833 42.1476 30.9788 42.1451 30.9729C42.1394 30.9592 42.1332 30.9417 42.1246 30.9155C42.0401 30.6579 41.9355 30.3061 41.8291 29.9351Z" fill="#E37D2F" stroke="#E37D2F" stroke-linecap="round"/>
<path d="M47.287 47.1523C46.8315 59.7541 45.964 60.3415 44.3072 60.3334C42.6503 60.3253 43.4794 53.5021 43.4042 47.9124C43.8999 40.0335 42.5693 33.8101 46.1962 34.1191C49.0679 34.1331 47.5147 40.8544 47.287 47.1523Z" fill="white"/>
<path d="M28.6986 7.20987C27.3823 7.1901 25.6779 7.57696 24.4014 7.73276C24.071 7.80679 23.7335 7.90198 23.4155 8.03043C22.7997 8.27919 22.218 8.66865 21.9115 9.29647C21.8201 9.48378 21.75 9.69705 21.6917 9.87436C21.6742 9.92741 21.6578 9.97733 21.6423 10.0223C21.5655 10.2438 21.4933 10.4024 21.3937 10.5222C21.2446 10.7015 21.0219 10.8647 20.7434 11.0682C20.5165 11.234 20.2364 11.3373 19.871 11.4376C19.7869 11.4607 19.6931 11.4847 19.5932 11.5103L19.592 11.5105L19.5915 11.5107C19.2982 11.5857 18.9523 11.6741 18.6425 11.7931C18.245 11.9457 17.8023 12.1956 17.4323 12.4972C17.0704 12.7923 16.7183 13.1856 16.6052 13.6362C16.4426 14.2842 16.8082 14.7943 17.2773 15.1219C17.7316 15.4391 18.3266 15.6255 18.836 15.6908C18.8684 15.695 18.8965 15.6963 18.9031 15.6966H18.9031C18.9145 15.6971 18.9262 15.6974 18.9348 15.6977C18.9522 15.6981 18.9726 15.6984 18.993 15.6986L19.1495 15.7C19.2726 15.7011 19.4262 15.7031 19.5763 15.7081C19.6592 15.7109 19.7354 15.7144 19.8015 15.7187C19.8126 15.7757 19.8264 15.8332 19.8421 15.8872C19.8633 15.9602 19.8929 16.0448 19.934 16.1252C19.9652 16.1862 20.0414 16.3253 20.2003 16.4274C20.454 16.5904 20.7396 16.5651 20.9226 16.5C21.0734 16.4463 21.1804 16.3611 21.2344 16.3149C21.2968 16.2615 21.3492 16.2061 21.3816 16.1713C21.4139 16.1366 21.4226 16.1268 21.4226 16.1268C21.6997 15.8853 22.1024 15.7008 22.562 15.4901L22.5625 15.4899L22.5655 15.4885C22.6535 15.4482 22.7436 15.4069 22.8353 15.3641C24.219 14.7175 25.9299 14.4129 27.5829 14.2369C28.952 14.0911 30.2168 14.3495 31.6743 14.6472L31.811 14.6751C32.7522 14.8671 33.6144 15.1407 34.3773 15.571C34.406 15.5871 34.4412 15.6056 34.4785 15.6247C34.5125 15.8252 34.6928 15.9941 34.9396 16.0418C35.0143 16.069 35.0968 16.0841 35.1836 16.0841C35.7032 16.0841 36.1467 15.899 36.4885 15.6924C36.8318 15.485 37.1212 15.2266 37.3404 15.0159C37.8689 14.5078 38.0767 13.8052 37.9272 13.1568C37.8246 12.7118 37.6461 12.3633 37.3321 12.0755C37.0331 11.8015 36.6501 11.6207 36.2514 11.4515C36.1828 11.4224 36.1128 11.3929 36.0417 11.363L36.0406 11.3625C35.5434 11.153 34.9959 10.9224 34.5085 10.6448C33.9412 10.3217 33.5603 9.99175 33.4221 9.6553C33.0533 8.75737 32.269 7.93751 31.175 7.511C30.4422 7.22529 29.565 7.21776 28.9159 7.21218L28.9157 7.21218L28.9157 7.21218C28.84 7.21153 28.7674 7.21091 28.6986 7.20987Z" fill="#E37D2F"/>
<path fill-rule="evenodd" clip-rule="evenodd" d="M28.2372 5.09405C28.4373 5.28436 28.4453 5.60084 28.255 5.80094C27.7319 6.35088 27.3982 6.8393 27.3597 7.3529C27.3391 7.62827 27.0992 7.8348 26.8238 7.81418C26.5484 7.79357 26.3419 7.55363 26.3625 7.27825C26.429 6.39025 26.9899 5.68001 27.5304 5.11176C27.7207 4.91167 28.0372 4.90374 28.2372 5.09405Z" fill="#E37D2F"/>
</g>
<rect x="0.5" y="0.5" width="57" height="59" rx="28.5" stroke="black"/>
<defs>
<clipPath id="clip0_86_1579">
<rect width="58" height="60" rx="29" fill="white"/>
</clipPath>
</defs>
</svg>
