<svg width="58" height="61" viewBox="0 0 58 61" fill="none" xmlns="http://www.w3.org/2000/svg">
<ellipse cx="29" cy="29.5" rx="29" ry="29.5" fill="#D9D9D9"/>
<g clip-path="url(#clip0_86_1508)">
<path d="M29 33C15.5 33 13 50.0589 13 60H44C44 50.0589 42.5 33 29 33Z" fill="white"/>
<circle cx="28.5" cy="21.5" r="7.5" fill="white"/>
<path fill-rule="evenodd" clip-rule="evenodd" d="M17.9638 38H18.2469C19.3825 38 20.6021 38.6091 21.7429 39.4207C22.9002 40.244 24.0536 41.3323 25.0709 42.4061C26.0904 43.4823 26.9848 44.5566 27.6237 45.3608C27.8768 45.6794 28.0903 45.9561 28.256 46.1745C28.4305 45.9548 28.6565 45.6749 28.9253 45.352C29.5947 44.5478 30.532 43.4736 31.6011 42.3976C32.668 41.3237 33.8777 40.2363 35.0922 39.4141C36.2918 38.6019 37.5657 38 38.7469 38H39.03L40.6942 40.7737L40.7081 40.8069L40.2469 41C40.7081 40.8069 40.7081 40.8069 40.7081 40.8069L40.7101 40.8117L40.7153 40.8242L40.735 40.872C40.7521 40.9138 40.7771 40.9753 40.8091 41.0551C40.873 41.2146 40.9647 41.4474 41.0767 41.7425C41.3006 42.3324 41.6061 43.1719 41.9331 44.1728C42.586 46.1708 43.3305 48.8283 43.68 51.4335C44.0262 54.0148 44.0005 56.6497 43.0096 58.53C42.5047 59.4879 41.7482 60.2515 40.6787 60.6978C39.618 61.1404 38.6236 65.7598 37 65.5C33.8708 64.9993 32.6121 66.5919 31.6011 66.5C30.6079 66.4097 29.7856 63.6905 29.5 63.7858C29.3336 66.8472 27.6237 64.5 27.6237 64.5C27.2758 64.623 27.4531 63.6458 26.4172 63.7858C25.2282 63.9464 24.1303 61 20.7469 61C17.2357 61 15.1046 59.7187 13.9887 57.6945C12.9017 55.7227 12.8407 53.1518 13.1893 50.6802C13.5401 48.1926 14.3189 45.7174 15.0048 43.8726C15.3485 42.9482 15.6705 42.1776 15.907 41.6374C16.0253 41.3672 16.1223 41.1544 16.19 41.0085C16.2238 40.9356 16.2504 40.8793 16.2686 40.841L16.2896 40.7971L16.2952 40.7856L16.2972 40.7815C16.2972 40.7815 16.2974 40.781 16.7469 41L16.2972 40.7815L16.307 40.7614L17.9638 38Z" fill="black"/>
<path fill-rule="evenodd" clip-rule="evenodd" d="M30.6646 12.3905C30.4166 12.2077 30.1754 12.132 30.112 12.1136C29.8469 12.0362 29.5989 12.0304 29.4784 12.0302C29.2039 12.0296 28.9442 12.066 28.8549 12.081C28.4096 12.1558 27.8894 12.3196 27.4161 12.6173C26.9421 12.9154 26.4116 13.4183 26.1924 14.1911C25.9575 15.0197 26.2372 15.7698 26.6158 16.2618C26.9863 16.7436 27.5541 17.1258 28.2163 17.2392C28.9124 17.3584 29.5909 17.1711 29.8936 17.0876C29.9131 17.0822 29.9311 17.0772 29.9473 17.0728C30.0589 17.0426 30.1636 17.0136 30.2628 16.9862C30.6343 16.8835 30.9294 16.8018 31.2265 16.7529C31.3258 16.7365 31.4702 16.7301 31.6292 16.7479C31.7411 16.7604 31.8371 16.7823 31.9127 16.8071C31.9072 16.8248 31.9011 16.8439 31.8943 16.8647C31.8855 16.892 31.8708 16.9348 31.8529 16.9873C31.8043 17.1295 31.7318 17.3421 31.6854 17.5033C31.5392 18.0121 31.3398 18.9746 31.9753 19.9092C32.6031 20.8323 33.6146 20.8748 34.0114 20.8723C34.2014 20.8711 34.4017 20.8553 34.5287 20.8453C34.5519 20.8435 34.5726 20.8419 34.5903 20.8406C34.7155 20.8313 34.7573 20.8318 34.7587 20.8313C34.8707 20.8449 34.9708 20.8871 35.0334 20.9325C35.0596 20.9516 35.072 20.9653 35.077 20.9721C35.121 21.1493 35.0689 21.3329 35.0333 21.3835C34.9143 21.5528 34.7797 21.707 34.5838 21.9314C34.5556 21.9638 34.5261 21.9976 34.4952 22.0331C34.2735 22.2877 33.9829 22.6277 33.7356 23.0388C33.4438 23.524 33.3039 24.0359 33.2184 24.3488C33.2122 24.3713 33.2064 24.3927 33.2008 24.4131C33.0682 24.8931 32.9163 25.6147 33.2148 26.4434C33.604 27.524 34.4994 28.0446 35.2595 28.2549C36.0001 28.4598 36.7727 28.4297 37.3738 28.3078C38.1256 28.1552 38.9185 27.818 39.5673 27.2697C39.8195 27.0567 40.1206 26.7505 40.3601 26.3681C40.5909 25.9996 40.8553 25.412 40.7728 24.7035C40.766 24.6453 40.7572 24.5883 40.7464 24.5326C40.8317 24.0996 40.8405 23.6549 40.7743 23.2212C40.7014 22.744 40.4578 22.1443 40.0124 21.7153C39.8736 21.5816 39.7367 21.4835 39.6349 21.416C39.5785 21.3787 39.5194 21.3423 39.4721 21.3137C39.4673 21.2468 39.4662 21.1609 39.4694 21.0423C39.4712 20.9781 39.4739 20.9123 39.4771 20.8357L39.4775 20.8268C39.4805 20.756 39.484 20.6741 39.4862 20.5923C39.487 20.5635 39.4881 20.5326 39.4892 20.4996C39.5043 20.0494 39.5318 19.2266 39.1371 18.4263C38.6319 17.4017 37.7268 16.7666 36.8464 16.4432C36.317 16.2488 35.7866 16.151 35.3371 16.084C35.3084 15.1704 35.0338 13.9166 33.8568 13.1599C32.7704 12.4615 31.5158 12.3961 30.6646 12.3905ZM35.316 16.7965C35.316 16.7964 35.316 16.7958 35.316 16.7946C35.3161 16.7958 35.316 16.7965 35.316 16.7965ZM39.4862 21.4169C39.4862 21.4169 39.486 21.4164 39.4857 21.4154L39.4862 21.4169ZM35.08 20.9769C35.0799 20.977 35.0791 20.9759 35.0781 20.9736C35.0796 20.9758 35.0801 20.9769 35.08 20.9769ZM32.0569 16.8726C32.0569 16.8726 32.0566 16.8723 32.056 16.8718L32.0569 16.8726ZM36.7666 24.5926C36.7649 24.5928 36.7641 24.5928 36.7641 24.5928L36.7666 24.5926Z" fill="black"/>
<path fill-rule="evenodd" clip-rule="evenodd" d="M24.236 12.8023C24.9541 12.532 25.633 12.5247 26.1535 12.5459C26.1565 12.546 26.1619 12.5461 26.1693 12.5462C26.2715 12.5478 26.768 12.5555 27.2145 12.7656C27.2161 12.7663 27.2181 12.7672 27.2203 12.7683C27.2552 12.7846 27.3693 12.838 27.4871 12.9092C27.489 12.9104 27.4912 12.9117 27.4938 12.9132C27.5696 12.9587 27.9099 13.1628 28.1314 13.5566C28.5376 14.2787 28.2815 15.1932 27.5594 15.5994C27.2696 15.7624 26.9487 15.8187 26.6421 15.781C26.5931 15.9587 26.5221 16.1145 26.4488 16.2422C26.0797 16.886 25.4495 17.1025 25.2037 17.1753C24.8936 17.2672 24.5971 17.2956 24.4521 17.3078C24.2561 17.3243 23.9711 17.3305 23.6544 17.2647C23.7358 17.5372 23.8695 17.9945 23.8815 18.4994C23.9065 19.5573 23.3721 20.5831 22.6963 21.2576C22.0137 21.939 20.8185 22.5959 19.4586 22.1127C18.7142 21.8483 17.6247 21.0167 17.845 19.5796C18.0044 18.5403 18.7404 17.8223 19.5937 17.5379C19.9446 17.4209 20.3081 17.4408 20.6264 17.5687C20.5688 17.3201 20.5195 17.022 20.5195 16.7029C20.5195 16.0128 20.7287 15.3547 21.0078 14.8331C21.4259 14.0518 22.0899 13.7815 22.5193 13.6498C22.6399 13.6128 22.7617 13.5819 22.8837 13.5563C23.0494 13.4162 23.2144 13.3058 23.3559 13.2205C23.6724 13.0299 23.9931 12.8937 24.236 12.8023ZM24.5297 16.4626C24.5304 16.4626 24.5309 16.4627 24.5312 16.4627L24.5315 16.4627C24.5309 16.4627 24.5303 16.4626 24.5297 16.4626ZM24.8166 15.8506C24.8159 15.8513 24.8155 15.8516 24.8155 15.8516L24.8166 15.8506Z" fill="black"/>
<path fill-rule="evenodd" clip-rule="evenodd" d="M21.8278 19.3697C22.601 19.6671 22.9868 20.535 22.6894 21.3082C22.6629 21.3771 22.6341 21.4552 22.6026 21.5404C22.446 21.9654 22.2237 22.5685 21.8904 23.1027C21.8838 23.1133 21.8772 23.1238 21.8705 23.1344C22.2042 23.2171 22.6342 23.3934 22.9894 23.7731C23.6403 24.4689 23.7551 25.4037 23.6873 26.0728C23.6198 26.7398 23.3193 27.6436 22.5221 28.1915C22.2978 28.3457 22.0062 28.5139 21.683 28.6442C21.3836 28.7648 20.922 28.9086 20.4057 28.8704C19.8326 28.828 19.3605 28.5859 19.0335 28.3584C18.6967 28.1241 18.4118 27.8352 18.1989 27.5495C17.2424 26.2664 17.4584 24.7159 17.8476 23.7079C18.088 23.0853 18.4568 22.6163 18.7308 22.2868C18.8096 22.1921 18.8786 22.1106 18.9399 22.0381C19.1236 21.8211 19.239 21.6849 19.345 21.5149C19.5014 21.2642 19.5949 21.0143 19.7437 20.6165C19.7867 20.5016 19.8343 20.3744 19.8893 20.2312C20.1867 19.458 21.0546 19.0723 21.8278 19.3697Z" fill="black"/>
<path fill-rule="evenodd" clip-rule="evenodd" d="M25.52 21.0634C25.52 20.7873 25.7439 20.5634 26.02 20.5634H26.0509C26.3271 20.5634 26.5509 20.7873 26.5509 21.0634C26.5509 21.3396 26.3271 21.5634 26.0509 21.5634H26.02C25.7439 21.5634 25.52 21.3396 25.52 21.0634Z" fill="black"/>
<path fill-rule="evenodd" clip-rule="evenodd" d="M29.9082 21.4397C29.7874 21.4416 29.6656 21.4 29.5682 21.3135C29.3716 21.1387 29.3454 20.8437 29.5019 20.6377C29.503 20.6361 29.5041 20.6345 29.5053 20.6328C29.5054 20.6327 29.5055 20.6326 29.5056 20.6324C29.5107 20.6251 29.5315 20.5957 29.5638 20.5639C29.5806 20.5473 29.6146 20.5159 29.6648 20.4869C29.7138 20.4586 29.8095 20.4146 29.9372 20.4203C30.2494 20.434 30.3628 20.6918 30.3799 20.7347C30.4054 20.7986 30.4114 20.8534 30.4127 20.8659C30.4127 20.8662 30.4128 20.8665 30.4128 20.8668C30.415 20.8865 30.4155 20.9022 30.4157 20.9084C30.416 20.9203 30.4159 20.9316 30.4159 20.9329L30.4159 20.933L30.4159 20.9398C30.4159 21.2159 30.192 21.4398 29.9159 21.4398C29.9133 21.4398 29.9107 21.4397 29.9082 21.4397Z" fill="black"/>
<path d="M28.6986 7.20987C27.3823 7.1901 25.6779 7.57696 24.4014 7.73276C24.071 7.80679 23.7335 7.90198 23.4155 8.03043C22.7997 8.27919 22.218 8.66865 21.9115 9.29647C21.8201 9.48378 21.75 9.69705 21.6917 9.87436C21.6742 9.92741 21.6578 9.97733 21.6423 10.0223C21.5655 10.2438 21.4933 10.4024 21.3937 10.5222C21.2446 10.7015 21.0219 10.8647 20.7434 11.0682C20.5165 11.234 20.2364 11.3373 19.871 11.4376C19.7869 11.4607 19.6931 11.4847 19.5932 11.5103L19.592 11.5105L19.5915 11.5107C19.2982 11.5857 18.9523 11.6741 18.6425 11.7931C18.245 11.9457 17.8023 12.1956 17.4323 12.4972C17.0704 12.7923 16.7183 13.1856 16.6052 13.6362C16.4426 14.2842 16.8082 14.7943 17.2773 15.1219C17.7316 15.4391 18.3266 15.6255 18.836 15.6908C18.8684 15.695 18.8965 15.6963 18.9031 15.6966H18.9031C18.9145 15.6971 18.9262 15.6974 18.9348 15.6977C18.9522 15.6981 18.9726 15.6984 18.993 15.6986L19.1495 15.7C19.2726 15.7011 19.4262 15.7031 19.5763 15.7081C19.6592 15.7109 19.7354 15.7144 19.8015 15.7187C19.8126 15.7757 19.8264 15.8332 19.8421 15.8872C19.8633 15.9602 19.8929 16.0448 19.934 16.1252C19.9652 16.1862 20.0414 16.3253 20.2003 16.4274C20.454 16.5904 20.7396 16.5651 20.9226 16.5C21.0734 16.4463 21.1804 16.3611 21.2344 16.3149C21.2968 16.2615 21.3492 16.2061 21.3816 16.1713C21.4139 16.1366 21.4226 16.1268 21.4226 16.1268C21.6997 15.8853 22.1024 15.7008 22.562 15.4901L22.5625 15.4899L22.5655 15.4885C22.6535 15.4482 22.7436 15.4069 22.8353 15.3641C24.219 14.7175 25.9299 14.4129 27.5829 14.2369C28.952 14.0911 30.2168 14.3495 31.6743 14.6472L31.811 14.6751C32.7522 14.8671 33.6144 15.1407 34.3773 15.571C34.406 15.5871 34.4412 15.6056 34.4785 15.6247C34.5125 15.8252 34.6928 15.9941 34.9396 16.0418C35.0143 16.069 35.0968 16.0841 35.1836 16.0841C35.7032 16.0841 36.1467 15.899 36.4885 15.6924C36.8318 15.485 37.1212 15.2266 37.3404 15.0159C37.8689 14.5078 38.0767 13.8052 37.9272 13.1568C37.8246 12.7118 37.6461 12.3633 37.3321 12.0755C37.0331 11.8015 36.6501 11.6207 36.2514 11.4515C36.1828 11.4224 36.1128 11.3929 36.0417 11.363L36.0406 11.3625C35.5434 11.153 34.9959 10.9224 34.5085 10.6448C33.9412 10.3217 33.5603 9.99175 33.4221 9.6553C33.0533 8.75737 32.269 7.93751 31.175 7.511C30.4422 7.22529 29.565 7.21776 28.9159 7.21218L28.9157 7.21218L28.9157 7.21218C28.84 7.21153 28.7674 7.21091 28.6986 7.20987Z" fill="#E37D2F"/>
<path fill-rule="evenodd" clip-rule="evenodd" d="M28.2372 5.09407C28.4373 5.28438 28.4453 5.60086 28.255 5.80095C27.7319 6.35089 27.3982 6.83931 27.3597 7.35292C27.3391 7.62829 27.0992 7.83481 26.8238 7.8142C26.5484 7.79358 26.3419 7.55364 26.3625 7.27827C26.429 6.39026 26.9899 5.68002 27.5304 5.11177C27.7207 4.91168 28.0372 4.90375 28.2372 5.09407Z" fill="#E37D2F"/>
</g>
<rect x="0.5" y="0.5" width="57" height="59" rx="28.5" stroke="black"/>
<defs>
<clipPath id="clip0_86_1508">
<rect width="58" height="60" rx="29" fill="white"/>
</clipPath>
</defs>
</svg>
