<svg width="58" height="61" viewBox="0 0 58 61" fill="none" xmlns="http://www.w3.org/2000/svg">
<ellipse cx="29" cy="29.5" rx="29" ry="29.5" fill="#D9D9D9"/>
<g clip-path="url(#clip0_42_148)">
<path d="M29 33C15.5 33 13 50.0589 13 60H44C44 50.0589 42.5 33 29 33Z" fill="white"/>
<circle cx="28.5" cy="21.5" r="7.5" fill="white"/>
<path d="M17 40.5L18.5 38C22.3961 38 23 41.5 28.5 41.5C34 41.5 34.8903 38 39 38L40.5 40.5L37 60H21L17 40.5Z" fill="black" stroke="black"/>
<path fill-rule="evenodd" clip-rule="evenodd" d="M30.6646 12.3905C30.4166 12.2077 30.1754 12.132 30.112 12.1136C29.8469 12.0362 29.5989 12.0304 29.4784 12.0302C29.2039 12.0296 28.9442 12.066 28.8549 12.081C28.4096 12.1558 27.8894 12.3196 27.4161 12.6173C26.9421 12.9154 26.4116 13.4183 26.1924 14.1911C25.9575 15.0197 26.2372 15.7698 26.6158 16.2618C26.9863 16.7436 27.5541 17.1258 28.2163 17.2392C28.9124 17.3584 29.5909 17.1711 29.8936 17.0876C29.9131 17.0822 29.9311 17.0772 29.9473 17.0728C30.0589 17.0426 30.1636 17.0136 30.2628 16.9862C30.6343 16.8835 30.9294 16.8018 31.2265 16.7529C31.3258 16.7365 31.4702 16.7301 31.6292 16.7479C31.7411 16.7604 31.8371 16.7823 31.9127 16.8071C31.9072 16.8248 31.9011 16.8439 31.8943 16.8647C31.8855 16.892 31.8708 16.9348 31.8529 16.9873C31.8043 17.1295 31.7318 17.3421 31.6854 17.5033C31.5392 18.0121 31.3398 18.9746 31.9753 19.9092C32.6031 20.8323 33.6146 20.8748 34.0114 20.8723C34.2014 20.8711 34.4017 20.8553 34.5287 20.8453C34.5519 20.8435 34.5726 20.8419 34.5903 20.8406C34.7155 20.8313 34.7573 20.8318 34.7587 20.8313C34.8707 20.8449 34.9708 20.8871 35.0334 20.9325C35.0596 20.9516 35.072 20.9653 35.077 20.9721C35.121 21.1493 35.0689 21.3329 35.0333 21.3835C34.9143 21.5528 34.7797 21.707 34.5838 21.9314C34.5556 21.9638 34.5261 21.9976 34.4952 22.0331C34.2735 22.2877 33.9829 22.6277 33.7356 23.0388C33.4438 23.524 33.3039 24.0359 33.2184 24.3488C33.2122 24.3713 33.2064 24.3927 33.2008 24.4131C33.0682 24.8931 32.9163 25.6147 33.2148 26.4434C33.604 27.524 34.4994 28.0446 35.2595 28.2549C36.0001 28.4598 36.7727 28.4297 37.3738 28.3078C38.1256 28.1552 38.9185 27.818 39.5673 27.2697C39.8195 27.0567 40.1206 26.7505 40.3601 26.3681C40.5909 25.9996 40.8553 25.412 40.7728 24.7035C40.766 24.6453 40.7572 24.5883 40.7464 24.5326C40.8317 24.0996 40.8405 23.6549 40.7743 23.2212C40.7014 22.744 40.4578 22.1443 40.0124 21.7153C39.8736 21.5816 39.7367 21.4835 39.6349 21.416C39.5785 21.3787 39.5194 21.3423 39.4721 21.3137C39.4673 21.2468 39.4662 21.1609 39.4694 21.0423C39.4712 20.9781 39.4739 20.9123 39.4771 20.8357L39.4775 20.8268C39.4805 20.756 39.484 20.6741 39.4862 20.5923C39.487 20.5635 39.4881 20.5326 39.4892 20.4996C39.5043 20.0494 39.5318 19.2266 39.1371 18.4263C38.6319 17.4017 37.7268 16.7666 36.8464 16.4432C36.317 16.2488 35.7866 16.151 35.3371 16.084C35.3084 15.1704 35.0338 13.9166 33.8568 13.1599C32.7704 12.4615 31.5158 12.3961 30.6646 12.3905ZM35.316 16.7965C35.316 16.7964 35.316 16.7958 35.316 16.7946C35.3161 16.7958 35.316 16.7965 35.316 16.7965ZM39.4862 21.4169C39.4862 21.4169 39.486 21.4164 39.4857 21.4154L39.4862 21.4169ZM35.08 20.9769C35.0799 20.977 35.0791 20.9759 35.0781 20.9736C35.0796 20.9758 35.0801 20.9769 35.08 20.9769ZM32.0569 16.8726C32.0569 16.8726 32.0566 16.8723 32.056 16.8718L32.0569 16.8726ZM36.7666 24.5926C36.7649 24.5928 36.7641 24.5928 36.7641 24.5928L36.7666 24.5926Z" fill="black"/>
<path fill-rule="evenodd" clip-rule="evenodd" d="M24.236 12.8023C24.9541 12.532 25.633 12.5247 26.1535 12.5459C26.1565 12.546 26.1619 12.5461 26.1693 12.5462C26.2715 12.5478 26.768 12.5555 27.2145 12.7656C27.2161 12.7663 27.2181 12.7672 27.2203 12.7683C27.2552 12.7846 27.3693 12.838 27.4871 12.9092C27.489 12.9104 27.4912 12.9117 27.4938 12.9132C27.5696 12.9587 27.9099 13.1628 28.1314 13.5566C28.5376 14.2787 28.2815 15.1932 27.5594 15.5994C27.2696 15.7624 26.9487 15.8187 26.6421 15.781C26.5931 15.9587 26.5221 16.1145 26.4488 16.2422C26.0797 16.886 25.4495 17.1025 25.2037 17.1753C24.8936 17.2672 24.5971 17.2956 24.4521 17.3078C24.2561 17.3243 23.9711 17.3305 23.6544 17.2647C23.7358 17.5372 23.8695 17.9945 23.8815 18.4994C23.9065 19.5573 23.3721 20.5831 22.6963 21.2576C22.0137 21.939 20.8185 22.5959 19.4586 22.1127C18.7142 21.8483 17.6247 21.0167 17.845 19.5796C18.0044 18.5403 18.7404 17.8223 19.5937 17.5379C19.9446 17.4209 20.3081 17.4408 20.6264 17.5687C20.5688 17.3201 20.5195 17.022 20.5195 16.7029C20.5195 16.0128 20.7287 15.3547 21.0078 14.8331C21.4259 14.0518 22.0899 13.7815 22.5193 13.6498C22.6399 13.6128 22.7617 13.5819 22.8837 13.5563C23.0494 13.4162 23.2144 13.3058 23.3559 13.2205C23.6724 13.0299 23.9931 12.8937 24.236 12.8023ZM24.5297 16.4626C24.5304 16.4626 24.5309 16.4627 24.5312 16.4627L24.5315 16.4627C24.5309 16.4627 24.5303 16.4626 24.5297 16.4626ZM24.8166 15.8506C24.8159 15.8513 24.8155 15.8516 24.8155 15.8516L24.8166 15.8506Z" fill="black"/>
<path fill-rule="evenodd" clip-rule="evenodd" d="M21.8278 19.3697C22.601 19.6671 22.9868 20.535 22.6894 21.3082C22.6629 21.3771 22.6341 21.4552 22.6026 21.5404C22.446 21.9654 22.2237 22.5685 21.8904 23.1027C21.8838 23.1133 21.8772 23.1238 21.8705 23.1344C22.2042 23.2171 22.6342 23.3934 22.9894 23.7731C23.6403 24.4689 23.7551 25.4037 23.6873 26.0728C23.6198 26.7398 23.3193 27.6436 22.5221 28.1915C22.2978 28.3457 22.0062 28.5139 21.683 28.6442C21.3836 28.7648 20.922 28.9086 20.4057 28.8704C19.8326 28.828 19.3605 28.5859 19.0335 28.3584C18.6967 28.1241 18.4118 27.8352 18.1989 27.5495C17.2424 26.2664 17.4584 24.7159 17.8476 23.7079C18.088 23.0853 18.4568 22.6163 18.7308 22.2868C18.8096 22.1921 18.8786 22.1106 18.9399 22.0381C19.1236 21.8211 19.239 21.6849 19.345 21.5149C19.5014 21.2642 19.5949 21.0143 19.7437 20.6165C19.7867 20.5016 19.8343 20.3744 19.8893 20.2312C20.1867 19.458 21.0546 19.0723 21.8278 19.3697Z" fill="black"/>
<path d="M26.02 21.0635H26.0509" stroke="black" stroke-linecap="round"/>
<path d="M29.9004 20.9398C29.9178 20.9202 29.9159 20.9069 29.9159 20.9398" stroke="black" stroke-linecap="round"/>
<path d="M26.5 26C26.5 26 27.5 27 29 26.5C30.5 26 31 25 31 25" stroke="black" stroke-linecap="round"/>
</g>
<rect x="0.5" y="0.5" width="57" height="59" rx="28.5" stroke="black"/>
<defs>
<clipPath id="clip0_42_148">
<rect width="58" height="60" rx="29" fill="white"/>
</clipPath>
</defs>
</svg>
