<svg width="398" height="365" viewBox="0 0 398 365" fill="none" xmlns="http://www.w3.org/2000/svg">
<path d="M366.228 42.8082C366.302 43.4892 364.71 33.5342 362.449 30.1657C350.62 12.5348 336.461 2.58542 315.295 1.08031C297.306 -0.198917 282.728 14.0696 269.842 24.9691C244.711 46.2248 219.609 65.1251 185.357 60.0267C146.3 54.2132 103.505 37.0888 66.3382 60.2206C51.651 69.3617 45.6837 89.6143 54.7386 105.245C63.5146 120.394 81.1102 128.937 90.6332 143.948C99.1792 157.418 101.427 180.214 93.1269 194.207C81.3416 214.076 58.2899 223.116 40.3808 235.547C20.5075 249.342 5.82523 268.441 1.9925 293.33C-0.0215492 306.409 0.917002 319.85 5.84644 332.15C13.2755 350.686 28.53 354.508 46.6907 355.806C64.7261 357.095 86.368 353.607 103.253 362.282C122.48 372.161 129.298 394.085 133.14 413.977C138.229 440.323 128.982 478.211 149.349 499.216C168.308 518.769 198.543 514.783 215.546 494.795C237.236 469.298 235.671 432.044 249.703 402.769C262.012 377.089 286.655 367.877 312.726 377.019C337.582 385.734 353.705 408.158 376.656 420.143C396.911 430.72 426.53 434.912 444.516 417.351C471.369 391.13 465.878 358.189 447.652 329.164C428.352 298.429 400.021 272.913 395.737 234.655C392.828 208.677 402.932 197.714 424.301 188.041C438.956 181.408 453.229 172.997 458.987 156.59C463.716 143.114 459.262 126.146 447.236 118.12C436.916 111.233 422.249 112.557 410.51 111.915C398.801 111.275 386.73 111.913 375.145 109.898C368.638 108.767 358.091 106.766 354.968 99.738C350.591 89.8853 359.749 79.3632 362.487 70.3811C366.536 57.1029 367.729 56.6749 366.228 42.8082Z" fill="#7A13AE" fill-opacity="0.7" stroke="#7A13AE" stroke-opacity="0.7" stroke-linecap="round"/>
</svg>
