<svg width="654" height="555" viewBox="0 0 654 555" fill="none" xmlns="http://www.w3.org/2000/svg">
<path fill-rule="evenodd" clip-rule="evenodd" d="M357 332.61C332.356 378.849 270.728 382.283 216.976 385.278L216.962 385.279C211.803 385.566 206.717 385.85 201.743 386.167C194.836 388.913 186.313 390.937 176 392.11C133.013 397.002 113.791 432.039 93.5876 468.865C75.1478 502.477 55.8904 537.579 17 552.61C-38.5 574.061 -116 445.685 -116 355.11C-116 324.141 -108.306 295.177 -94.9339 270.467C-118.197 213.292 -116.836 144.228 -63.5002 69.1098C103 -165.39 351 -161.39 448 -134.39C546.186 -118.138 600.933 -82.5555 625.729 -39.8025C643.645 -13.0047 654 18.6712 654 52.6101C654 148.984 570.501 227.11 467.5 227.11C452.654 227.11 438.213 225.487 424.369 222.42C370.071 218.79 366.778 260.14 363.974 295.354C362.8 310.099 361.712 323.769 357 332.61Z" fill="#7A13AE" fill-opacity="0.7"/>
</svg>
