<svg width="1517" height="507" viewBox="0 0 1517 507" fill="none" xmlns="http://www.w3.org/2000/svg">
<path d="M3 248.416C48.6026 219.688 100.872 149.877 123.27 113.194C144.364 78.6455 186.068 36.2764 225.466 55.4519C250.454 67.6138 252.508 105.102 266.214 129.118C280.197 153.62 290.751 179.213 305.811 202.784C314.678 216.662 328 224.667 347.5 228.167C367 231.667 372.091 222.2 382.5 228.167C388.953 231.865 396.031 225.324 388 231.667C345.002 265.62 308.728 359.149 287.039 409.856C225.466 511.174 145.274 516.005 113.905 409.856C105.185 380.35 100.325 351.972 85.8088 325.695C77.8929 311.366 65.2104 301.402 55.4127 289.367C41.1339 271.827 45.7505 285.552 3 248.416Z" fill="#7A13AE" stroke="#7A13AE" stroke-width="3" stroke-linecap="round"/>
<path d="M494 259.667C479.727 253.287 480.504 252.749 478.89 253.667C506.078 265.494 508.705 309.894 537.98 319.457C554.957 325.002 574.628 320.663 591.718 326.392C616.133 334.577 625.75 357.388 652.693 362.734C684.143 368.975 725.23 359.264 751.212 345.571C778.135 331.38 773.093 311.915 774.487 290.127C775.465 274.85 784.695 261.169 805.262 256.419C816.423 253.842 828.265 252.934 838.535 248.477C841.628 247.134 849.882 235.953 847.768 232.747C844.923 228.431 847.768 224.988 832.755 232.747C825.104 224.534 817.636 223.061 805.574 219.806C781.427 213.288 758.708 204.028 740.068 190.67C731.116 184.254 724.098 176.348 719.552 167.733C716.341 161.647 715.399 154.175 708.826 149.368C691.524 136.717 666.979 144.187 650.714 153.63C644.442 157.272 638.27 163.297 629.365 162.851C616.385 162.202 607.236 152.131 593.54 151.848C572.318 151.409 563.321 168.86 559.486 181.371C553.404 201.209 551.573 223.523 539.178 241.968C529.043 257.049 515.478 257.324 494 259.667Z" fill="#7A13AE" stroke="#7A13AE" stroke-width="3" stroke-linecap="round"/>
<path d="M1062.43 214.618C1047.15 219.101 1020.3 226.644 997.61 227.529C1038.69 236.981 1083.01 258.676 1099 279.563C1109.18 292.858 1143.35 311.08 1172.87 305.946C1180.99 304.534 1195.42 299.691 1203.97 301.887C1211.16 303.733 1216.23 310.536 1220.82 313.83C1243.94 330.428 1252.19 361.455 1298.58 364.49C1350.52 367.889 1355.71 321.101 1401.46 316.289C1423.93 313.925 1442.35 309.319 1457.26 299.155C1477.79 285.153 1477.25 273.843 1482.6 256.926C1486.59 244.299 1492.55 235.73 1507.51 226.717C1509.19 225.704 1517.46 223.057 1514.28 221.331C1506.99 217.383 1491.94 216.399 1483.39 212.511C1461.89 202.736 1459.77 185.546 1437.39 176.721C1420.53 170.076 1394 174.524 1373.74 172.623C1355.57 170.918 1343.38 160.222 1331.26 153.655C1325.72 150.649 1321.27 147.175 1315.35 144.366C1305.69 139.783 1285.97 145.543 1277.62 149.01C1252.31 159.532 1236.84 174.755 1202.6 176.994C1174.06 178.862 1134.27 173.108 1113.26 187.064C1097.84 197.304 1084.67 208.092 1062.43 214.618Z" fill="#7A13AE"/>
<path d="M997.61 227.529C1020.3 226.644 1047.15 219.101 1062.43 214.618C1084.67 208.092 1097.84 197.304 1113.26 187.064C1134.27 173.108 1174.06 178.862 1202.6 176.994C1236.84 174.755 1252.31 159.532 1277.62 149.01C1285.97 145.543 1305.69 139.783 1315.35 144.366C1321.27 147.175 1325.72 150.649 1331.26 153.655C1343.38 160.222 1355.57 170.918 1373.74 172.623C1394 174.524 1420.53 170.076 1437.39 176.721C1459.77 185.546 1461.89 202.736 1483.39 212.511C1491.94 216.399 1506.99 217.383 1514.28 221.331C1517.46 223.057 1509.19 225.704 1507.51 226.717C1492.55 235.73 1486.59 244.299 1482.6 256.926C1477.25 273.843 1477.79 285.153 1457.26 299.155C1442.35 309.319 1423.93 313.925 1401.46 316.289C1355.71 321.101 1350.52 367.889 1298.58 364.49C1252.19 361.455 1243.94 330.428 1220.82 313.83C1216.23 310.536 1211.16 303.733 1203.97 301.887C1195.42 299.691 1180.99 304.534 1172.87 305.946C1143.35 311.08 1109.18 292.858 1099 279.563C1083.01 258.676 1038.69 236.981 997.61 227.529ZM997.61 227.529C987.888 225.292 1006.55 242.542 997.61 241.85C1004.85 245.63 986.644 227.957 997.61 227.529Z" stroke="#7A13AE" stroke-width="3" stroke-linecap="round"/>
<path fill-rule="evenodd" clip-rule="evenodd" d="M2.29575 246.735C2.00644 246.481 1.73722 246.206 1.48923 245.909C1.18744 245.547 1.4049 245.099 1.97494 244.907C2.54498 244.716 3.25173 244.854 3.55352 245.215C4.72379 246.618 6.39362 247.319 8.48067 247.529C10.6444 247.747 13.3499 247.443 16.5039 246.67C22.8064 245.125 30.4023 241.831 37.9996 237.981C45.574 234.142 53.0571 229.798 59.1284 226.202C60.32 225.497 61.4594 224.818 62.5345 224.178C64.1913 223.192 65.6953 222.297 67.0023 221.532C69.1347 220.284 70.83 219.33 71.8502 218.888C76.2209 216.995 80.3022 216.155 84.1686 216.132C88.0304 216.108 91.5632 216.899 94.8385 218.144C100.132 220.155 104.938 223.437 109.525 226.569C110.542 227.264 111.549 227.951 112.547 228.616C126.011 237.575 144.086 243.13 163.56 242.747C173.231 242.557 181.619 240.596 189.888 238.108C192.65 237.277 195.419 236.38 198.222 235.471C203.737 233.684 209.385 231.854 215.367 230.403C235.328 225.563 252.041 226.799 271.269 232.417C275.047 233.52 278.909 234.753 282.82 236L282.821 236C284.186 236.436 285.558 236.874 286.933 237.308C292.265 238.992 297.687 240.641 303.197 242.008C314.223 244.743 325.499 246.325 336.944 244.836C342.318 244.137 347.438 241.902 352.29 239.162C354.705 237.799 357.023 236.328 359.25 234.888C359.677 234.612 360.101 234.337 360.521 234.064C362.287 232.918 364 231.807 365.634 230.823C373.765 225.929 385.939 223.342 396.467 221.966C419.923 218.9 438.991 226.251 457.353 234.576C459.621 235.604 461.877 236.647 464.131 237.688L464.137 237.691C471.054 240.888 477.946 244.073 485.082 246.794C494.523 250.396 504.288 253.142 514.887 253.975C526.573 254.894 535.625 251.787 544.075 247.419C547.405 245.698 550.604 243.801 553.831 241.888C554.712 241.366 555.595 240.842 556.483 240.321C560.602 237.903 564.818 235.539 569.348 233.641C574.313 231.562 579.207 230.84 583.951 231.091C588.67 231.34 593.155 232.545 597.346 234.23C604.362 237.05 610.769 241.311 616.25 244.955C617.281 245.641 618.28 246.305 619.243 246.934C627.737 252.473 635.934 257.474 645.055 260.24C654.084 262.979 664.063 263.539 676.239 260.097C697.051 254.214 712.931 245.98 728.338 235.406C728.993 234.956 729.654 234.493 730.324 234.025L730.327 234.022C734.983 230.764 740.082 227.195 746.856 225.411C752.029 224.049 757.36 225.209 762.068 226.911C764.445 227.77 766.737 228.795 768.857 229.771C769.28 229.966 769.695 230.159 770.102 230.347L770.108 230.35C771.759 231.116 773.279 231.821 774.675 232.385C786.483 237.155 798.115 238.766 808.808 237.465C819.503 236.164 829.424 231.928 837.747 224.803C839.21 223.551 840.639 222.303 842.055 221.066L842.059 221.063C852.212 212.198 861.721 203.895 878.436 198.47C885.473 196.186 891.238 195.68 896.626 196.667C901.945 197.641 906.708 200.041 911.858 203.284C915.564 205.618 919.1 208.259 922.627 210.893C924.44 212.248 926.251 213.6 928.082 214.909C933.525 218.799 939.221 222.363 945.978 224.757C951.365 226.666 955.696 227.447 959.314 227.444C962.901 227.44 965.897 226.664 968.639 225.321C971.409 223.966 973.91 222.036 976.46 219.736C977.924 218.415 979.359 217.016 980.86 215.553C981.998 214.442 983.175 213.295 984.431 212.117C994.258 202.9 1013.58 200.74 1029.43 201.636C1039.08 202.181 1046.88 204.939 1053.96 208.38C1057.49 210.099 1060.86 211.999 1064.2 213.886L1064.62 214.125C1067.82 215.938 1070.99 217.731 1074.27 219.37C1083.2 223.821 1091.94 225.056 1100.64 224.503C1109.4 223.946 1118.17 221.571 1127.11 218.714C1129.68 217.891 1132.27 217.026 1134.88 216.157L1134.89 216.156C1141.26 214.03 1147.72 211.875 1154.21 210.233C1163.38 207.909 1172.8 206.553 1182.46 207.709C1187.09 208.263 1191.42 209.692 1195.46 211.316C1197.49 212.129 1199.46 213.001 1201.38 213.846L1201.43 213.867C1203.33 214.708 1205.17 215.52 1206.97 216.241C1217.44 220.427 1227.6 223.501 1239.94 223.919C1252.38 224.341 1264.55 223.09 1275.51 219.378C1280.51 217.684 1284.76 216.286 1290.46 215.428C1298.41 214.232 1304.4 214.224 1310.25 215.066C1315.81 215.865 1321.2 217.427 1327.9 219.37L1328.77 219.624C1337.94 222.282 1345.08 222.652 1351.88 221.611C1358.76 220.559 1365.39 218.055 1373.57 214.804C1381.68 211.577 1392.42 210.147 1401.76 208.904C1402.89 208.753 1404 208.606 1405.09 208.457C1418.79 206.585 1428.01 209.032 1439.49 213.22C1446.64 215.829 1452.4 217.547 1458.34 218.19C1464.25 218.828 1470.45 218.412 1478.47 216.621C1489.48 214.161 1486.06 227.889 1494.95 223.052C1488.53 239.928 1490.93 234.986 1501 218.19C1501 234.431 1510.49 221.345 1510 221.611C1509.49 221.886 1508.38 222.783 1507.85 223.052L1496.54 226.981C1496.55 226.994 1496.57 227.007 1496.59 227.021C1496.96 227.352 1496.85 227.816 1496.33 228.056C1489.68 231.123 1479.54 232.927 1471.5 233.285C1461.93 233.71 1452.86 230.997 1444.68 228.548L1444.66 228.543C1443.91 228.318 1443.17 228.097 1442.43 227.879C1431.2 224.559 1421.36 221.859 1409.56 224.637C1401.28 226.587 1394.18 230.193 1387.24 233.826C1386.6 234.157 1385.92 234.529 1385.19 234.924C1383.07 236.076 1380.58 237.425 1377.96 238.534C1374.45 240.022 1370.41 241.206 1366.3 240.888C1362.83 240.619 1359.72 239.477 1356.9 238.239C1355.93 237.813 1355 237.381 1354.09 236.96L1354.09 236.958L1354.09 236.957C1352.28 236.119 1350.58 235.326 1348.83 234.717C1342.22 232.42 1333.75 230.756 1325.36 230.471C1316.97 230.185 1308.78 231.282 1302.59 234.41C1298.99 236.234 1295.83 238.292 1292.68 240.408C1292.25 240.699 1291.81 240.99 1291.38 241.282L1291.38 241.284C1288.67 243.112 1285.93 244.965 1282.92 246.683C1279.92 248.397 1275.53 249.413 1271.09 249.97C1266.63 250.531 1261.99 250.646 1258.35 250.491C1253.68 250.292 1249.97 249.6 1246.67 248.398C1243.38 247.201 1240.57 245.521 1237.65 243.408C1235 241.491 1232.02 239.726 1228.95 237.974C1228.23 237.561 1227.5 237.149 1226.76 236.735C1224.4 235.401 1222.02 234.055 1219.77 232.656C1205.71 223.934 1184.36 223.295 1166.48 227.548C1159.83 229.129 1153.88 231.807 1147.78 234.552C1146.3 235.215 1144.82 235.882 1143.32 236.539C1135.68 239.876 1127.57 242.895 1117.79 243.252C1112.46 243.447 1107.23 242.937 1102.26 241.694C1100.35 241.214 1098.32 240.841 1096.24 240.455L1096.24 240.455C1095.88 240.388 1095.52 240.321 1095.15 240.253C1092.71 239.798 1090.21 239.302 1087.9 238.589C1084.41 237.516 1081.37 236.015 1078.5 234.475C1077.77 234.081 1077.04 233.685 1076.33 233.293C1074.21 232.137 1072.15 231.009 1069.95 230.015C1059.92 225.49 1048.18 225.988 1036.5 228.066L1036.22 228.117C1027.16 229.728 1019.05 231.171 1011.72 234.758C1003.91 238.588 995.934 242.377 987.993 246.086C979.565 250.024 969.66 252.306 959.063 250.453C948.896 248.676 943.061 245.269 936.302 240.49C933.228 238.315 930.874 236.079 928.405 233.716C927.247 232.607 925.856 231.657 924.354 230.715C923.902 230.432 923.433 230.146 922.958 229.855C921.884 229.198 920.774 228.519 919.733 227.801C918.71 227.095 917.757 226.376 916.834 225.677L916.738 225.605L916.734 225.601C915.84 224.925 914.975 224.27 914.073 223.642C912.21 222.345 910.238 221.197 907.734 220.331C895.681 216.16 881.985 217.934 869.551 221.42C865.923 222.437 862.813 223.989 859.59 225.598C858.79 225.997 857.982 226.401 857.157 226.8C855.033 227.829 852.763 228.728 850.549 229.605L850.151 229.762L849.792 229.905C847.322 230.886 844.941 231.859 842.793 233.007C842.391 233.222 841.984 233.441 841.572 233.663C836.904 236.178 831.536 239.07 825.192 240.096C823.304 240.402 821.497 240.757 819.702 241.122C819.355 241.192 819.008 241.263 818.661 241.334C817.222 241.628 815.779 241.923 814.328 242.189C810.71 242.853 806.955 243.356 802.674 243.293C802.456 243.29 802.157 243.296 801.773 243.304C801.619 243.307 801.452 243.311 801.271 243.314C800.673 243.325 799.971 243.331 799.306 243.305C799.196 243.301 799.083 243.295 798.969 243.289C798.886 243.3 798.8 243.306 798.712 243.306C792.512 243.306 786.958 243.277 780.977 241.59C779.352 241.132 777.612 240.575 775.849 240.01C774.729 239.652 773.6 239.29 772.487 238.95C769.56 238.054 766.626 237.265 763.772 236.863C755.92 235.756 749.541 237.632 743.977 240.773C739.245 243.445 735.222 246.962 731.487 250.227L731.48 250.232C730.788 250.838 730.105 251.434 729.43 252.015C727.817 253.403 725.971 254.581 724.088 255.687C723.321 256.137 722.564 256.567 721.813 256.993L721.812 256.994L721.808 256.996L721.807 256.997C720.678 257.637 719.564 258.27 718.449 258.954C717.28 259.671 716.246 260.502 715.207 261.385C714.969 261.588 714.728 261.795 714.486 262.003C713.69 262.688 712.87 263.394 711.999 264.052C707.246 267.643 701.121 271.937 694.361 274.272C678.978 279.586 661.547 280.161 645.157 276.39C639.176 275.014 634.923 272.139 631.421 268.945C629.667 267.347 628.081 265.647 626.557 263.994L626.403 263.827L626.149 263.551C624.764 262.047 623.427 260.594 622.03 259.265C619.675 257.024 616.42 254.51 612.675 252.5C608.915 250.481 604.765 249.027 600.611 248.785C587.848 248.042 577.715 254.103 569.815 260.354C565.534 263.741 561.258 267.142 557.026 270.552C556.333 271.11 555.62 271.766 554.859 272.479C554.742 272.588 554.624 272.699 554.505 272.811L554.496 272.82C553.85 273.426 553.173 274.063 552.469 274.681C550.81 276.138 548.891 277.597 546.617 278.455C540.998 280.573 533.322 280.489 525.996 279.579C518.617 278.662 511.321 276.87 506.25 275.368C501.812 274.053 497.933 271.914 494.384 269.955L494.373 269.95C493.994 269.74 493.618 269.533 493.247 269.329C492.267 268.793 491.272 268.252 490.267 267.706C483.032 263.775 475.315 259.582 469.535 254.765C467.893 253.396 466.47 251.879 465.087 250.404C464.871 250.174 464.656 249.945 464.442 249.718C462.834 248.014 461.23 246.395 459.283 245.03C457.179 243.554 454.609 242.421 451.861 241.315C451.313 241.095 450.755 240.874 450.193 240.652L450.176 240.645L450.172 240.644L450.171 240.643C447.964 239.771 445.687 238.872 443.624 237.818C440.153 236.046 436.765 234.517 432.901 233.11C424.732 230.134 414.588 229.395 404.734 230.422C394.88 231.448 385.425 234.229 378.67 238.204C375.212 240.238 372.641 242.704 370.009 245.227C369.274 245.932 368.534 246.641 367.769 247.347C364.313 250.535 360.39 253.581 354.174 255.285C339.148 259.403 318.757 260.719 303.323 256.236C298.861 254.94 294.736 253.129 290.782 251.234C289.397 250.57 288.04 249.9 286.697 249.236L286.694 249.235C284.166 247.985 281.684 246.759 279.143 245.64C275.526 244.047 271.733 242.69 267.88 241.346C267.403 241.18 266.925 241.014 266.446 240.847C263.072 239.674 259.662 238.489 256.361 237.158C255.325 236.741 254.347 236.25 253.424 235.787C253.205 235.677 252.987 235.568 252.774 235.462C251.635 234.898 250.548 234.398 249.358 234.043C248.009 233.64 246.492 233.465 244.821 233.339C244.406 233.308 243.976 233.28 243.537 233.251C242.269 233.167 240.925 233.078 239.662 232.902C234.075 232.124 227.898 232.629 221.783 233.777C215.678 234.923 209.727 236.692 204.629 238.383C203.087 238.894 201.489 239.289 199.96 239.666L199.628 239.748C197.978 240.156 196.409 240.555 194.926 241.086C193.576 241.57 192.366 242.159 191.124 242.796C190.901 242.91 190.677 243.026 190.45 243.143L190.44 243.148L190.439 243.149C189.423 243.674 188.362 244.223 187.222 244.723C185.071 245.665 182.909 246.659 180.726 247.663C176.058 249.809 171.295 252 166.348 253.817C157.019 257.243 147.405 257.711 137.717 254.254C132.609 252.431 127.463 250.7 122.222 249.038C121.485 248.804 120.693 248.575 119.863 248.336L119.751 248.304C118.961 248.076 118.138 247.839 117.328 247.588C115.64 247.063 113.927 246.452 112.538 245.661C108.849 243.56 105.178 241.515 101.488 239.458L101.485 239.457L101.483 239.455C99.0971 238.126 96.7031 236.792 94.2903 235.435C93.1253 234.78 92.0098 234.123 90.9052 233.474C89.2049 232.473 87.53 231.488 85.7402 230.546C85.106 230.212 84.537 229.781 84.0522 229.414C83.9389 229.328 83.8301 229.246 83.7262 229.169C83.1231 228.724 82.623 228.411 82.0726 228.243C81.5521 228.084 81.0688 227.923 80.6483 227.783C80.4501 227.717 80.2655 227.655 80.0979 227.601C79.5433 227.421 79.1205 227.301 78.7197 227.232C78.0159 227.11 77.2118 227.114 75.6826 227.555C74.8246 227.802 73.9491 228.074 73.0574 228.35C71.172 228.934 69.2138 229.54 67.1953 229.992C62.9193 230.95 59.7484 232.681 56.6069 234.66C55.9992 235.042 55.3902 235.436 54.7733 235.835C52.243 237.471 49.5794 239.193 46.3335 240.583C44.579 241.334 43.139 242.315 41.6549 243.385C41.4796 243.511 41.3034 243.639 41.1258 243.768L41.1249 243.768C39.8277 244.709 38.4581 245.703 36.8541 246.546C33.9072 248.095 30.3238 248.979 26.9748 249.805L26.9737 249.805C26.1884 249.999 25.4152 250.19 24.6669 250.385C23.5536 250.676 22.2083 251.107 20.6739 251.6L20.2301 251.742C18.5334 252.286 16.6525 252.881 14.7431 253.382C12.8377 253.881 10.8554 254.3 8.94903 254.479C7.04451 254.657 5.12824 254.603 3.42577 254.095C2.84216 253.921 2.5917 253.479 2.86633 253.109C2.94596 253.002 3.06099 252.912 3.19843 252.843L2.29575 246.735Z" fill="#7A13AE"/>
</svg>
