<svg width="1518" height="506" viewBox="0 0 1518 506" fill="none" xmlns="http://www.w3.org/2000/svg">
<path d="M4 242.459C44.0236 227.865 89.8984 192.4 109.556 173.764C128.069 156.214 164.672 134.69 199.25 144.431C221.181 150.609 222.983 169.654 235.012 181.854C247.284 194.301 256.548 207.303 269.765 219.277C277.547 226.327 286.508 231.182 295.288 237.425C302.572 242.603 310.307 244.134 319.442 247.165C325.106 249.044 339.109 248.557 332.06 251.779C294.323 269.027 272.325 298.712 253.289 324.472C199.25 375.942 128.868 378.396 101.336 324.472C93.6836 309.482 89.418 295.066 76.6779 281.717C69.7305 274.438 58.5995 269.376 50.0005 263.262C37.4686 254.352 41.5204 261.324 4 242.459Z" fill="#7A13AE" stroke="#7A13AE" stroke-width="3" stroke-linecap="round"/>
<path d="M495 259C480.727 252.62 481.504 252.083 479.89 253C507.078 264.828 509.705 309.227 538.98 318.79C555.957 324.336 575.628 319.996 592.718 325.725C617.133 333.91 626.75 356.722 653.693 362.068C685.143 368.308 726.23 358.598 752.212 344.904C779.135 330.714 774.093 311.249 775.487 289.461C776.465 274.183 785.695 260.502 806.262 255.753C817.423 253.176 829.265 252.268 839.535 247.81C842.628 246.468 850.882 235.286 848.768 232.08C845.923 227.765 848.768 224.321 833.755 232.08C826.104 223.867 818.636 222.395 806.574 219.139C782.427 212.622 759.708 203.362 741.068 190.004C732.116 183.588 725.098 175.682 720.552 167.067C717.341 160.98 716.399 153.509 709.826 148.702C692.524 136.05 667.979 143.52 651.714 152.964C645.442 156.605 639.27 162.63 630.365 162.185C617.385 161.536 608.236 151.465 594.54 151.182C573.318 150.743 564.321 168.193 560.486 180.705C554.404 200.543 552.573 222.856 540.178 241.301C530.043 256.382 516.478 256.658 495 259Z" fill="#7A13AE" stroke="#7A13AE" stroke-width="3" stroke-linecap="round"/>
<path d="M1060.27 172.265C1044.89 181.534 1032.35 218.67 1009.5 220.5C1050.86 240.042 1080.99 263.357 1097.1 306.542C1107.35 334.032 1141.75 371.707 1171.48 361.092C1179.66 358.171 1194.19 348.159 1202.8 352.7C1210.04 356.517 1215.15 370.581 1219.77 377.393C1243.05 411.709 1251.36 475.861 1298.07 482.135C1350.37 489.162 1355.6 392.425 1401.67 382.477C1424.3 377.589 1442.85 368.065 1457.85 347.051C1478.53 318.1 1477.99 294.716 1483.37 259.739C1487.39 233.632 1493.39 215.915 1508.46 197.281C1510.15 195.185 1518.48 189.714 1515.27 186.145C1507.94 177.982 1492.78 175.946 1484.17 167.908C1462.52 147.698 1460.38 112.156 1437.84 93.9102C1420.87 80.1717 1394.16 89.3681 1373.75 85.4372C1355.46 81.9122 1343.18 59.7961 1330.98 46.2193C1325.4 40.0034 1320.92 32.8214 1314.96 27.0138C1305.23 17.5386 1285.37 29.4478 1276.97 36.6166C1251.48 58.3696 1235.9 89.8445 1201.42 94.4751C1172.68 98.337 1132.62 86.4403 1111.45 115.295C1095.93 136.467 1082.66 158.772 1060.27 172.265Z" fill="#7A13AE"/>
<path d="M1009.5 220.5C1032.35 218.67 1044.89 181.534 1060.27 172.265C1082.66 158.772 1095.93 136.467 1111.45 115.295C1132.62 86.4403 1172.68 98.337 1201.42 94.4751C1235.9 89.8445 1251.48 58.3696 1276.97 36.6166C1285.37 29.4478 1305.23 17.5386 1314.96 27.0138C1320.92 32.8213 1325.4 40.0034 1330.98 46.2193C1343.18 59.7961 1355.46 81.9122 1373.75 85.4372C1394.16 89.3681 1420.87 80.1717 1437.84 93.9103C1460.38 112.156 1462.52 147.698 1484.17 167.908C1492.78 175.946 1507.94 177.982 1515.27 186.145C1518.48 189.714 1510.15 195.185 1508.46 197.281C1493.39 215.915 1487.39 233.632 1483.37 259.739C1477.99 294.716 1478.53 318.1 1457.85 347.051C1442.85 368.065 1424.3 377.589 1401.67 382.477C1355.6 392.425 1350.37 489.162 1298.07 482.135C1251.36 475.861 1243.05 411.709 1219.77 377.393C1215.15 370.581 1210.04 356.517 1202.8 352.7C1194.19 348.159 1179.66 358.171 1171.48 361.092C1141.75 371.707 1107.35 334.032 1097.1 306.542C1080.99 263.357 1050.86 240.042 1009.5 220.5ZM1009.5 220.5C999.71 215.875 1004 230 995 228.568C1002.29 236.385 998.457 221.384 1009.5 220.5Z" stroke="#7A13AE" stroke-width="3" stroke-linecap="round"/>
<path fill-rule="evenodd" clip-rule="evenodd" d="M3.29575 246.068C3.00644 245.815 2.73722 245.539 2.48923 245.242C2.18744 244.881 2.4049 244.432 2.97494 244.241C3.54498 244.049 4.25173 244.187 4.55352 244.549C5.72379 245.951 7.39362 246.653 9.48067 246.863C11.6444 247.08 14.3499 246.777 17.5039 246.004C23.8064 244.458 31.4023 241.165 38.9996 237.314C46.574 233.476 54.0571 229.132 60.1284 225.536C61.32 224.83 62.4594 224.152 63.5345 223.512C65.1913 222.526 66.6953 221.63 68.0023 220.865C70.1347 219.617 71.83 218.664 72.8502 218.222C77.2209 216.328 81.3022 215.489 85.1686 215.465C89.0304 215.441 92.5632 216.233 95.8385 217.477C101.132 219.489 105.938 222.771 110.525 225.903C111.542 226.598 112.549 227.285 113.547 227.949C127.011 236.908 145.086 242.464 164.56 242.081C174.231 241.89 182.619 239.93 190.888 237.442C193.65 236.611 196.419 235.713 199.222 234.805C204.737 233.017 210.385 231.187 216.367 229.736C236.328 224.896 253.041 226.132 272.269 231.75C276.047 232.854 279.909 234.086 283.82 235.334L283.821 235.334C285.186 235.769 286.558 236.207 287.933 236.641C293.265 238.326 298.687 239.974 304.197 241.341C315.223 244.076 326.499 245.658 337.944 244.17C343.318 243.471 348.438 241.236 353.29 238.496C355.705 237.132 358.023 235.661 360.25 234.221C360.677 233.946 361.101 233.671 361.521 233.398C363.287 232.252 365 231.14 366.634 230.157C374.765 225.263 386.939 222.675 397.467 221.299C420.923 218.234 439.991 225.585 458.353 233.909C460.621 234.938 462.877 235.98 465.131 237.022L465.137 237.025C472.054 240.221 478.946 243.406 486.082 246.128C495.523 249.729 505.288 252.475 515.887 253.308C527.573 254.227 536.625 251.12 545.075 246.753C548.405 245.031 551.604 243.135 554.831 241.222C555.712 240.699 556.595 240.176 557.483 239.655C561.602 237.236 565.818 234.872 570.348 232.975C575.313 230.895 580.207 230.174 584.951 230.424C589.67 230.673 594.155 231.879 598.346 233.563C605.362 236.384 611.769 240.644 617.25 244.289C618.281 244.974 619.28 245.639 620.243 246.267C628.737 251.807 636.934 256.807 646.055 259.574C655.084 262.312 665.063 262.872 677.239 259.43C698.051 253.548 713.931 245.313 729.338 234.739C729.993 234.289 730.654 233.827 731.324 233.358L731.327 233.356C735.983 230.097 741.082 226.529 747.856 224.745C753.029 223.382 758.36 224.542 763.068 226.245C765.445 227.104 767.737 228.128 769.857 229.105C770.28 229.3 770.695 229.492 771.102 229.681L771.108 229.684C772.759 230.45 774.279 231.154 775.675 231.718C787.483 236.488 799.115 238.1 809.808 236.798C820.503 235.497 830.424 231.261 838.747 224.137C840.21 222.884 841.639 221.637 843.055 220.4L843.059 220.397C853.212 211.531 862.721 203.229 879.436 197.803C886.473 195.519 892.238 195.013 897.626 196C902.945 196.974 907.708 199.374 912.858 202.617C916.564 204.951 920.1 207.592 923.627 210.227C925.44 211.581 927.251 212.934 929.082 214.242C934.525 218.132 940.221 221.696 946.978 224.091C952.365 226 956.696 226.781 960.314 226.777C963.901 226.773 966.897 225.997 969.639 224.655C972.409 223.299 974.91 221.369 977.46 219.069C978.924 217.748 980.359 216.349 981.86 214.886C982.998 213.776 984.175 212.629 985.431 211.451C995.258 202.234 1014.58 200.073 1030.43 200.969C1040.08 201.515 1047.88 204.272 1054.96 207.713C1058.49 209.432 1061.86 211.332 1065.2 213.22L1065.62 213.459C1068.82 215.271 1071.99 217.065 1075.27 218.703C1084.2 223.155 1092.94 224.39 1101.64 223.836C1110.4 223.279 1119.17 220.904 1128.11 218.047C1130.68 217.225 1133.27 216.36 1135.88 215.49L1135.89 215.489C1142.26 213.363 1148.72 211.208 1155.21 209.566C1164.38 207.242 1173.8 205.887 1183.46 207.043C1188.09 207.596 1192.42 209.025 1196.46 210.649C1198.49 211.463 1200.46 212.335 1202.38 213.179L1202.43 213.201C1204.33 214.042 1206.17 214.853 1207.97 215.574C1218.44 219.761 1228.6 222.834 1240.94 223.253C1253.38 223.675 1265.55 222.423 1276.51 218.712C1281.51 217.018 1285.76 215.619 1291.46 214.762C1299.41 213.565 1305.4 213.558 1311.25 214.399C1316.81 215.198 1322.2 216.76 1328.9 218.704L1329.77 218.958C1338.94 221.616 1346.08 221.985 1352.88 220.945C1359.76 219.893 1366.39 217.388 1374.57 214.137C1382.68 210.91 1393.42 209.481 1402.76 208.238C1403.89 208.087 1405 207.939 1406.09 207.791C1419.79 205.919 1429.01 208.365 1440.49 212.553C1447.64 215.162 1453.4 216.881 1459.34 217.523C1465.25 218.162 1471.45 217.746 1479.47 215.954C1490.48 213.494 1487.06 227.223 1495.95 222.385C1489.53 239.262 1491.93 234.319 1502 217.523C1502 233.764 1511.49 220.679 1511 220.945C1510.49 221.22 1509.38 222.116 1508.85 222.385L1497.54 226.315C1497.55 226.328 1497.57 226.341 1497.59 226.355C1497.96 226.686 1497.85 227.149 1497.33 227.39C1490.68 230.457 1480.54 232.26 1472.5 232.618C1462.93 233.044 1453.86 230.33 1445.68 227.881L1445.66 227.876C1444.91 227.652 1444.17 227.43 1443.43 227.213C1432.2 223.893 1422.36 221.192 1410.56 223.97C1402.28 225.92 1395.18 229.526 1388.24 233.159C1387.6 233.49 1386.92 233.862 1386.19 234.258C1384.07 235.409 1381.58 236.758 1378.96 237.867C1375.45 239.356 1371.41 240.539 1367.3 240.221C1363.83 239.953 1360.72 238.81 1357.9 237.573C1356.93 237.146 1356 236.714 1355.09 236.294L1355.09 236.291L1355.09 236.291C1353.28 235.452 1351.58 234.66 1349.83 234.05C1343.22 231.754 1334.75 230.09 1326.36 229.805C1317.97 229.519 1309.78 230.615 1303.59 233.744C1299.99 235.567 1296.83 237.625 1293.68 239.742C1293.25 240.032 1292.81 240.324 1292.38 240.616L1292.38 240.618C1289.67 242.445 1286.93 244.298 1283.92 246.016C1280.92 247.731 1276.53 248.746 1272.09 249.304C1267.63 249.864 1262.99 249.98 1259.35 249.825C1254.68 249.625 1250.97 248.934 1247.67 247.731C1244.38 246.535 1241.57 244.854 1238.65 242.741C1236 240.824 1233.02 239.06 1229.95 237.308C1229.23 236.895 1228.5 236.482 1227.76 236.069C1225.4 234.735 1223.02 233.388 1220.77 231.989C1206.71 223.268 1185.36 222.628 1167.48 226.881C1160.83 228.462 1154.88 231.141 1148.78 233.886C1147.3 234.549 1145.82 235.216 1144.32 235.872C1136.68 239.209 1128.57 242.228 1118.79 242.586C1113.46 242.781 1108.23 242.271 1103.26 241.027C1101.35 240.548 1099.32 240.174 1097.24 239.789L1097.24 239.789C1096.88 239.722 1096.52 239.655 1096.15 239.587C1093.71 239.131 1091.21 238.635 1088.9 237.923C1085.41 236.849 1082.37 235.348 1079.5 233.809C1078.77 233.414 1078.04 233.019 1077.33 232.627C1075.21 231.47 1073.15 230.342 1070.95 229.348C1060.92 224.824 1049.18 225.322 1037.5 227.399L1037.22 227.45C1028.16 229.061 1020.05 230.504 1012.72 234.092C1004.91 237.922 996.934 241.71 988.993 245.42C980.565 249.357 970.66 251.639 960.063 249.787C949.896 248.01 944.061 244.602 937.302 239.823C934.228 237.649 931.874 235.413 929.405 233.049C928.247 231.941 926.856 230.991 925.354 230.049C924.902 229.765 924.433 229.479 923.958 229.189C922.884 228.532 921.774 227.853 920.733 227.135C919.71 226.429 918.757 225.709 917.834 225.01L917.738 224.938L917.734 224.935C916.84 224.259 915.975 223.603 915.073 222.976C913.21 221.678 911.238 220.531 908.734 219.664C896.681 215.493 882.985 217.268 870.551 220.754C866.923 221.771 863.813 223.323 860.59 224.931C859.79 225.331 858.982 225.734 858.157 226.134C856.033 227.162 853.763 228.062 851.549 228.938L851.151 229.096L850.792 229.238C848.322 230.219 845.941 231.192 843.793 232.341C843.391 232.555 842.984 232.775 842.572 232.997C837.904 235.512 832.536 238.404 826.192 239.43C824.304 239.735 822.497 240.091 820.702 240.455C820.355 240.526 820.008 240.597 819.661 240.668C818.222 240.962 816.779 241.256 815.328 241.522C811.71 242.186 807.955 242.689 803.674 242.626C803.456 242.623 803.157 242.629 802.773 242.637C802.619 242.641 802.452 242.644 802.271 242.647C801.673 242.658 800.971 242.665 800.306 242.639C800.196 242.634 800.083 242.629 799.969 242.622C799.886 242.634 799.8 242.64 799.712 242.64C793.512 242.64 787.958 242.61 781.977 240.924C780.352 240.466 778.612 239.908 776.849 239.344C775.729 238.985 774.6 238.624 773.487 238.283C770.56 237.388 767.626 236.599 764.772 236.196C756.92 235.089 750.541 236.966 744.977 240.107C740.245 242.779 736.222 246.295 732.487 249.56L732.48 249.566C731.788 250.171 731.105 250.768 730.43 251.349C728.817 252.736 726.971 253.914 725.088 255.02C724.321 255.471 723.564 255.901 722.813 256.327L722.812 256.327L722.808 256.329L722.807 256.33C721.678 256.971 720.564 257.603 719.449 258.287C718.28 259.005 717.246 259.835 716.207 260.718C715.969 260.921 715.728 261.128 715.486 261.337C714.69 262.022 713.87 262.728 712.999 263.385C708.246 266.976 702.121 271.27 695.361 273.605C679.978 278.92 662.547 279.494 646.157 275.723C640.176 274.347 635.923 271.472 632.421 268.279C630.667 266.68 629.081 264.981 627.557 263.328L627.403 263.161L627.149 262.885C625.764 261.381 624.427 259.928 623.03 258.598C620.675 256.358 617.42 253.843 613.675 251.833C609.915 249.815 605.765 248.361 601.611 248.119C588.848 247.376 578.715 253.437 570.815 259.687C566.534 263.074 562.258 266.475 558.026 269.885C557.333 270.443 556.62 271.099 555.859 271.812C555.742 271.922 555.624 272.033 555.505 272.144L555.496 272.153C554.85 272.76 554.173 273.396 553.469 274.014C551.81 275.471 549.891 276.931 547.617 277.788C541.998 279.906 534.322 279.823 526.996 278.912C519.617 277.995 512.321 276.204 507.25 274.701C502.812 273.387 498.933 271.247 495.384 269.289L495.373 269.283C494.994 269.074 494.618 268.867 494.247 268.663C493.267 268.126 492.272 267.585 491.267 267.039C484.032 263.109 476.315 258.916 470.535 254.099C468.893 252.73 467.47 251.212 466.087 249.738C465.871 249.508 465.656 249.279 465.442 249.051C463.834 247.347 462.23 245.728 460.283 244.363C458.179 242.888 455.609 241.754 452.861 240.649C452.313 240.428 451.755 240.208 451.193 239.985L451.176 239.979L451.172 239.977L451.171 239.977C448.964 239.105 446.687 238.205 444.624 237.152C441.153 235.379 437.765 233.85 433.901 232.443C425.732 229.468 415.588 228.729 405.734 229.755C395.88 230.781 386.425 233.563 379.67 237.537C376.212 239.572 373.641 242.038 371.009 244.561C370.274 245.266 369.534 245.975 368.769 246.681C365.313 249.868 361.39 252.915 355.174 254.619C340.148 258.737 319.757 260.052 304.323 255.569C299.861 254.273 295.736 252.463 291.782 250.568C290.397 249.904 289.04 249.233 287.697 248.569L287.694 248.568C285.166 247.319 282.684 246.092 280.143 244.973C276.526 243.381 272.733 242.024 268.88 240.68C268.403 240.514 267.925 240.347 267.446 240.181C264.072 239.008 260.662 237.822 257.361 236.492C256.325 236.074 255.347 235.583 254.424 235.121C254.205 235.01 253.987 234.901 253.774 234.796C252.635 234.231 251.548 233.731 250.358 233.376C249.009 232.973 247.492 232.798 245.821 232.673C245.406 232.641 244.976 232.613 244.537 232.584C243.269 232.5 241.925 232.412 240.662 232.236C235.075 231.458 228.898 231.962 222.783 233.11C216.678 234.256 210.727 236.026 205.629 237.716C204.087 238.228 202.489 238.622 200.96 239L200.628 239.081C198.978 239.49 197.409 239.889 195.926 240.42C194.576 240.903 193.366 241.492 192.124 242.129C191.901 242.243 191.677 242.359 191.45 242.477L191.44 242.482L191.439 242.483C190.423 243.008 189.362 243.557 188.222 244.056C186.071 244.998 183.909 245.993 181.726 246.996C177.058 249.143 172.295 251.333 167.348 253.15C158.019 256.577 148.405 257.045 138.717 253.587C133.609 251.764 128.463 250.034 123.222 248.372C122.485 248.138 121.693 247.909 120.863 247.669L120.751 247.637C119.961 247.41 119.138 247.173 118.328 246.921C116.64 246.397 114.927 245.786 113.538 244.995C109.849 242.894 106.178 240.848 102.488 238.791L102.485 238.79L102.483 238.789C100.097 237.459 97.7031 236.125 95.2903 234.768C94.1253 234.113 93.0098 233.457 91.9052 232.807C90.2049 231.807 88.53 230.822 86.7402 229.879C86.106 229.545 85.537 229.114 85.0522 228.748C84.9389 228.662 84.8301 228.579 84.7262 228.503C84.1231 228.057 83.623 227.745 83.0726 227.577C82.5521 227.418 82.0688 227.256 81.6483 227.116C81.4501 227.05 81.2655 226.989 81.0979 226.934C80.5433 226.755 80.1205 226.634 79.7197 226.565C79.0159 226.444 78.2118 226.447 76.6826 226.888C75.8246 227.136 74.9491 227.407 74.0574 227.683C72.172 228.267 70.2138 228.874 68.1953 229.326C63.9193 230.283 60.7484 232.015 57.6069 233.993C56.9992 234.376 56.3902 234.769 55.7733 235.168C53.243 236.804 50.5794 238.526 47.3335 239.916C45.579 240.668 44.139 241.649 42.6549 242.718C42.4796 242.844 42.3034 242.972 42.1258 243.101L42.1249 243.102C40.8277 244.043 39.4581 245.036 37.8541 245.879C34.9072 247.429 31.3238 248.313 27.9748 249.139L27.9737 249.139C27.1884 249.333 26.4152 249.523 25.6669 249.719C24.5536 250.009 23.2083 250.441 21.6739 250.933L21.2301 251.076C19.5334 251.62 17.6525 252.215 15.7431 252.715C13.8377 253.215 11.8554 253.634 9.94903 253.812C8.04451 253.99 6.12824 253.937 4.42577 253.428C3.84216 253.254 3.5917 252.813 3.86633 252.443C3.94596 252.335 4.06099 252.246 4.19843 252.177L3.29575 246.068Z" fill="#7A13AE"/>
</svg>
