<svg width="1518" height="600" viewBox="0 0 1518 600" fill="none" xmlns="http://www.w3.org/2000/svg">
<path d="M4 309.792C44.0236 295.198 89.8984 259.734 109.556 241.098C128.069 223.547 164.672 202.023 199.25 211.765C221.181 217.943 222.983 236.987 235.012 249.188C247.284 261.635 256.548 274.636 269.765 286.611C277.547 293.661 286.508 298.515 295.288 304.758C302.572 309.936 310.307 311.467 319.442 314.498C325.106 316.377 339.109 315.89 332.06 319.112C294.323 336.361 272.325 366.045 253.289 391.805C199.25 443.275 128.868 445.73 101.336 391.805C93.6836 376.816 89.418 362.4 76.6779 349.051C69.7305 341.771 58.5995 336.709 50.0005 330.595C37.4686 321.685 41.5204 328.657 4 309.792Z" fill="#7A13AE" stroke="#7A13AE" stroke-width="3" stroke-linecap="round"/>
<path d="M456 303.833C433.231 286.705 419.575 291.371 417 293.833C460.372 325.588 469.563 451.286 516.264 476.96C543.347 491.848 574.727 480.198 601.989 495.579C640.937 517.552 656.279 578.794 699.26 593.146C749.431 609.899 814.975 583.83 856.422 547.067C899.372 508.971 891.329 456.713 893.553 398.219C895.113 357.204 909.836 320.474 942.646 307.724C960.451 300.805 979.342 298.368 995.725 286.401C1000.66 282.797 1036.37 295.008 1033 286.401C1028.46 274.816 1023.95 271.503 1000 292.333C987.794 270.285 962.386 218.169 943.144 209.428C904.623 191.931 868.381 167.07 838.646 131.208C824.365 113.983 813.169 92.7585 805.918 69.6299C800.795 53.2893 799.292 33.2303 788.806 20.3259C761.206 -13.6391 722.05 6.41515 696.104 31.7678C686.098 41.5444 676.252 57.7196 662.046 56.5238C641.34 54.7806 626.745 27.743 604.896 26.983C571.042 25.8054 556.69 72.6544 550.571 106.244C540.869 159.502 537.948 219.407 518.175 268.926C502.008 309.414 490.263 297.546 456 303.833Z" fill="#7A13AE" stroke="#7A13AE" stroke-width="3" stroke-linecap="round"/>
<path d="M1063.43 281.285C1048.15 285.768 1021.3 293.311 998.61 294.196C1039.69 303.648 1084.01 325.343 1100 346.23C1110.18 359.525 1144.35 377.747 1173.87 372.613C1181.99 371.201 1196.42 366.358 1204.97 368.554C1212.16 370.4 1217.23 377.203 1221.82 380.497C1244.94 397.095 1253.19 428.122 1299.58 431.157C1351.52 434.556 1356.71 387.768 1402.46 382.956C1424.93 380.592 1443.35 375.986 1458.26 365.822C1478.79 351.82 1478.25 340.51 1483.6 323.593C1487.59 310.966 1493.55 302.397 1508.51 293.384C1510.19 292.37 1518.46 289.724 1515.28 287.998C1507.99 284.05 1492.94 283.066 1484.39 279.178C1462.89 269.403 1460.77 252.213 1438.39 243.388C1421.53 236.743 1395 241.191 1374.74 239.29C1356.57 237.585 1344.38 226.888 1332.26 220.322C1326.72 217.316 1322.27 213.842 1316.35 211.033C1306.69 206.45 1286.97 212.21 1278.62 215.677C1253.31 226.199 1237.84 241.422 1203.6 243.661C1175.06 245.529 1135.27 239.775 1114.26 253.731C1098.84 263.971 1085.67 274.759 1063.43 281.285Z" fill="#7A13AE"/>
<path d="M998.61 294.196C1021.3 293.311 1048.15 285.768 1063.43 281.285C1085.67 274.759 1098.84 263.971 1114.26 253.731C1135.27 239.775 1175.06 245.529 1203.6 243.661C1237.84 241.422 1253.31 226.199 1278.62 215.677C1286.97 212.21 1306.69 206.45 1316.35 211.033C1322.27 213.842 1326.72 217.316 1332.26 220.322C1344.38 226.888 1356.57 237.585 1374.74 239.29C1395 241.191 1421.53 236.743 1438.39 243.388C1460.77 252.213 1462.89 269.403 1484.39 279.178C1492.94 283.066 1507.99 284.05 1515.28 287.998C1518.46 289.724 1510.19 292.37 1508.51 293.384C1493.55 302.397 1487.59 310.966 1483.6 323.593C1478.25 340.51 1478.79 351.82 1458.26 365.822C1443.35 375.986 1424.93 380.592 1402.46 382.956C1356.71 387.768 1351.52 434.556 1299.58 431.157C1253.19 428.122 1244.94 397.095 1221.82 380.497C1217.23 377.203 1212.16 370.4 1204.97 368.554C1196.42 366.358 1181.99 371.201 1173.87 372.613C1144.35 377.747 1110.18 359.525 1100 346.23C1084.01 325.343 1039.69 303.648 998.61 294.196ZM998.61 294.196C988.888 291.959 1007.55 309.209 998.61 308.517C1005.85 312.297 987.644 294.624 998.61 294.196Z" stroke="#7A13AE" stroke-width="3" stroke-linecap="round"/>
<path fill-rule="evenodd" clip-rule="evenodd" d="M3.29575 313.402C3.00644 313.148 2.73722 312.873 2.48923 312.576C2.18744 312.214 2.4049 311.766 2.97494 311.574C3.54498 311.383 4.25173 311.521 4.55352 311.882C5.72379 313.285 7.39362 313.986 9.48067 314.196C11.6444 314.414 14.3499 314.11 17.5039 313.337C23.8064 311.792 31.4023 308.498 38.9996 304.648C46.574 300.809 54.0571 296.465 60.1284 292.869C61.32 292.164 62.4594 291.485 63.5345 290.845C65.1913 289.859 66.6953 288.964 68.0023 288.199C70.1347 286.951 71.83 285.997 72.8502 285.555C77.2209 283.662 81.3022 282.822 85.1686 282.799C89.0304 282.775 92.5632 283.566 95.8385 284.811C101.132 286.822 105.938 290.104 110.525 293.236C111.542 293.931 112.549 294.618 113.547 295.283C127.011 304.242 145.086 309.797 164.56 309.414C174.231 309.224 182.619 307.263 190.888 304.775C193.65 303.944 196.419 303.047 199.222 302.138C204.737 300.351 210.385 298.521 216.367 297.07C236.328 292.23 253.041 293.466 272.269 299.084C276.047 300.187 279.909 301.419 283.82 302.667L283.821 302.667C285.186 303.103 286.558 303.541 287.933 303.975C293.265 305.659 298.687 307.308 304.197 308.675C315.223 311.41 326.499 312.992 337.944 311.503C343.318 310.804 348.438 308.569 353.29 305.829C355.705 304.466 358.023 302.995 360.25 301.555C360.677 301.279 361.101 301.004 361.521 300.731C363.287 299.585 365 298.474 366.634 297.49C374.765 292.596 386.939 290.009 397.467 288.633C420.923 285.567 439.991 292.918 458.353 301.243C460.621 302.271 462.877 303.314 465.131 304.355L465.137 304.358C472.054 307.555 478.946 310.74 486.082 313.461C495.523 317.063 505.288 319.809 515.887 320.642C527.573 321.561 536.625 318.454 545.075 314.086C548.405 312.365 551.604 310.468 554.831 308.555C555.712 308.033 556.595 307.509 557.483 306.988C561.602 304.57 565.818 302.206 570.348 300.308C575.313 298.229 580.207 297.507 584.951 297.758C589.67 298.007 594.155 299.212 598.346 300.897C605.362 303.717 611.769 307.978 617.25 311.622C618.281 312.308 619.28 312.972 620.243 313.601C628.737 319.14 636.934 324.141 646.055 326.907C655.084 329.646 665.063 330.206 677.239 326.764C698.051 320.881 713.931 312.647 729.338 302.073C729.993 301.623 730.654 301.16 731.324 300.692L731.327 300.689C735.983 297.431 741.082 293.862 747.856 292.078C753.029 290.716 758.36 291.876 763.068 293.578C765.445 294.437 767.737 295.462 769.857 296.438C770.28 296.633 770.695 296.826 771.102 297.014L771.108 297.017C772.759 297.783 774.279 298.488 775.675 299.052C787.483 303.822 799.115 305.433 809.808 304.132C820.503 302.831 830.424 298.595 838.747 291.47C840.21 290.218 841.639 288.97 843.055 287.733L843.059 287.73C853.212 278.865 862.721 270.562 879.436 265.137C886.473 262.853 892.238 262.347 897.626 263.333C902.945 264.308 907.708 266.708 912.858 269.951C916.564 272.285 920.1 274.926 923.627 277.56C925.44 278.915 927.251 280.267 929.082 281.576C934.525 285.466 940.221 289.03 946.978 291.424C952.365 293.333 956.696 294.114 960.314 294.111C963.901 294.107 966.897 293.331 969.639 291.988C972.409 290.633 974.91 288.703 977.46 286.403C978.924 285.082 980.359 283.683 981.86 282.22C982.998 281.109 984.175 279.962 985.431 278.784C995.258 269.567 1014.58 267.407 1030.43 268.303C1040.08 268.848 1047.88 271.606 1054.96 275.047C1058.49 276.766 1061.86 278.666 1065.2 280.553L1065.62 280.792C1068.82 282.605 1071.99 284.398 1075.27 286.037C1084.2 290.488 1092.94 291.723 1101.64 291.17C1110.4 290.613 1119.17 288.238 1128.11 285.381C1130.68 284.558 1133.27 283.693 1135.88 282.824L1135.89 282.823C1142.26 280.697 1148.72 278.542 1155.21 276.9C1164.38 274.576 1173.8 273.22 1183.46 274.376C1188.09 274.93 1192.42 276.359 1196.46 277.983C1198.49 278.796 1200.46 279.668 1202.38 280.513L1202.43 280.534C1204.33 281.375 1206.17 282.187 1207.97 282.908C1218.44 287.094 1228.6 290.168 1240.94 290.586C1253.38 291.008 1265.55 289.757 1276.51 286.045C1281.51 284.351 1285.76 282.953 1291.46 282.095C1299.41 280.899 1305.4 280.891 1311.25 281.733C1316.81 282.532 1322.2 284.094 1328.9 286.037L1329.77 286.291C1338.94 288.949 1346.08 289.319 1352.88 288.278C1359.76 287.226 1366.39 284.722 1374.57 281.471C1382.68 278.244 1393.42 276.814 1402.76 275.571C1403.89 275.42 1405 275.273 1406.09 275.124C1419.79 273.252 1429.01 275.699 1440.49 279.887C1447.64 282.496 1453.4 284.214 1459.34 284.857C1465.25 285.495 1471.45 285.079 1479.47 283.288C1490.48 280.828 1487.06 294.556 1495.95 289.719C1489.53 306.595 1491.93 301.653 1502 284.857C1502 301.098 1511.49 288.012 1511 288.278C1510.49 288.553 1509.38 289.45 1508.85 289.719L1497.54 293.648C1497.55 293.661 1497.57 293.674 1497.59 293.688C1497.96 294.019 1497.85 294.483 1497.33 294.723C1490.68 297.79 1480.54 299.594 1472.5 299.952C1462.93 300.377 1453.86 297.664 1445.68 295.215L1445.66 295.21C1444.91 294.985 1444.17 294.764 1443.43 294.546C1432.2 291.226 1422.36 288.526 1410.56 291.304C1402.28 293.254 1395.18 296.86 1388.24 300.492C1387.6 300.824 1386.92 301.196 1386.19 301.591C1384.07 302.743 1381.58 304.092 1378.96 305.201C1375.45 306.689 1371.41 307.873 1367.3 307.555C1363.83 307.286 1360.72 306.144 1357.9 304.906C1356.93 304.48 1356 304.048 1355.09 303.627L1355.09 303.625L1355.09 303.624C1353.28 302.786 1351.58 301.993 1349.83 301.384C1343.22 299.087 1334.75 297.423 1326.36 297.138C1317.97 296.852 1309.78 297.949 1303.59 301.077C1299.99 302.901 1296.83 304.959 1293.68 307.075C1293.25 307.366 1292.81 307.657 1292.38 307.949L1292.38 307.951C1289.67 309.779 1286.93 311.632 1283.92 313.35C1280.92 315.064 1276.53 316.08 1272.09 316.637C1267.63 317.198 1262.99 317.313 1259.35 317.158C1254.68 316.959 1250.97 316.267 1247.67 315.065C1244.38 313.868 1241.57 312.188 1238.65 310.075C1236 308.158 1233.02 306.393 1229.95 304.641C1229.23 304.228 1228.5 303.816 1227.76 303.402C1225.4 302.068 1223.02 300.722 1220.77 299.323C1206.71 290.601 1185.36 289.962 1167.48 294.215C1160.83 295.796 1154.88 298.474 1148.78 301.219C1147.3 301.882 1145.82 302.549 1144.32 303.206C1136.68 306.543 1128.57 309.562 1118.79 309.919C1113.46 310.114 1108.23 309.604 1103.26 308.361C1101.35 307.881 1099.32 307.508 1097.24 307.122L1097.24 307.122C1096.88 307.055 1096.52 306.988 1096.15 306.92C1093.71 306.465 1091.21 305.969 1088.9 305.256C1085.41 304.183 1082.37 302.682 1079.5 301.142C1078.77 300.748 1078.04 300.352 1077.33 299.96C1075.21 298.804 1073.15 297.676 1070.95 296.682C1060.92 292.157 1049.18 292.655 1037.5 294.733L1037.22 294.784C1028.16 296.395 1020.05 297.838 1012.72 301.425C1004.91 305.255 996.934 309.044 988.993 312.753C980.565 316.691 970.66 318.973 960.063 317.12C949.896 315.343 944.061 311.936 937.302 307.157C934.228 304.982 931.874 302.746 929.405 300.383C928.247 299.274 926.856 298.324 925.354 297.382C924.902 297.099 924.433 296.813 923.958 296.522C922.884 295.865 921.774 295.186 920.733 294.468C919.71 293.762 918.757 293.043 917.834 292.344L917.738 292.272L917.734 292.268C916.84 291.592 915.975 290.937 915.073 290.309C913.21 289.012 911.238 287.864 908.734 286.998C896.681 282.827 882.985 284.601 870.551 288.087C866.923 289.104 863.813 290.656 860.59 292.265C859.79 292.664 858.982 293.068 858.157 293.467C856.033 294.496 853.763 295.395 851.549 296.272L851.151 296.429L850.792 296.572C848.322 297.553 845.941 298.526 843.793 299.674C843.391 299.889 842.984 300.108 842.572 300.33C837.904 302.845 832.536 305.737 826.192 306.763C824.304 307.069 822.497 307.424 820.702 307.789C820.355 307.859 820.008 307.93 819.661 308.001C818.222 308.295 816.779 308.59 815.328 308.856C811.71 309.52 807.955 310.023 803.674 309.96C803.456 309.957 803.157 309.963 802.773 309.971C802.619 309.974 802.452 309.977 802.271 309.981C801.673 309.992 800.971 309.998 800.306 309.972C800.196 309.968 800.083 309.962 799.969 309.956C799.886 309.967 799.8 309.973 799.712 309.973C793.512 309.973 787.958 309.944 781.977 308.257C780.352 307.799 778.612 307.242 776.849 306.677C775.729 306.319 774.6 305.957 773.487 305.617C770.56 304.721 767.626 303.932 764.772 303.53C756.92 302.423 750.541 304.299 744.977 307.44C740.245 310.112 736.222 313.629 732.487 316.894L732.48 316.899C731.788 317.505 731.105 318.101 730.43 318.682C728.817 320.07 726.971 321.248 725.088 322.354C724.321 322.804 723.564 323.234 722.813 323.66L722.812 323.661L722.808 323.663L722.807 323.664C721.678 324.304 720.564 324.937 719.449 325.621C718.28 326.338 717.246 327.169 716.207 328.052C715.969 328.255 715.728 328.462 715.486 328.67C714.69 329.355 713.87 330.061 712.999 330.719C708.246 334.31 702.121 338.604 695.361 340.939C679.978 346.253 662.547 346.828 646.157 343.057C640.176 341.681 635.923 338.806 632.421 335.612C630.667 334.014 629.081 332.314 627.557 330.661L627.403 330.494L627.149 330.218C625.764 328.714 624.427 327.261 623.03 325.932C620.675 323.691 617.42 321.177 613.675 319.167C609.915 317.148 605.765 315.694 601.611 315.452C588.848 314.709 578.715 320.77 570.815 327.021C566.534 330.408 562.258 333.809 558.026 337.219C557.333 337.777 556.62 338.433 555.859 339.146C555.742 339.255 555.624 339.366 555.505 339.478L555.496 339.487C554.85 340.093 554.173 340.73 553.469 341.348C551.81 342.805 549.891 344.264 547.617 345.122C541.998 347.24 534.322 347.156 526.996 346.246C519.617 345.329 512.321 343.537 507.25 342.035C502.812 340.72 498.933 338.581 495.384 336.622L495.373 336.617C494.994 336.407 494.618 336.2 494.247 335.996C493.267 335.46 492.272 334.919 491.267 334.373C484.032 330.442 476.315 326.249 470.535 321.432C468.893 320.063 467.47 318.546 466.087 317.071C465.871 316.841 465.656 316.612 465.442 316.385C463.834 314.681 462.23 313.062 460.283 311.697C458.179 310.221 455.609 309.088 452.861 307.982C452.313 307.762 451.755 307.541 451.193 307.319L451.176 307.312L451.172 307.311L451.171 307.31C448.964 306.438 446.687 305.539 444.624 304.485C441.153 302.713 437.765 301.184 433.901 299.777C425.732 296.801 415.588 296.062 405.734 297.089C395.88 298.115 386.425 300.896 379.67 304.871C376.212 306.905 373.641 309.371 371.009 311.894C370.274 312.599 369.534 313.308 368.769 314.014C365.313 317.202 361.39 320.248 355.174 321.952C340.148 326.07 319.757 327.386 304.323 322.903C299.861 321.607 295.736 319.796 291.782 317.901C290.397 317.237 289.04 316.567 287.697 315.903L287.694 315.902C285.166 314.652 282.684 313.426 280.143 312.307C276.526 310.714 272.733 309.357 268.88 308.013C268.403 307.847 267.925 307.681 267.446 307.514C264.072 306.341 260.662 305.156 257.361 303.825C256.325 303.408 255.347 302.917 254.424 302.454C254.205 302.344 253.987 302.235 253.774 302.129C252.635 301.565 251.548 301.065 250.358 300.71C249.009 300.307 247.492 300.132 245.821 300.006C245.406 299.975 244.976 299.947 244.537 299.918C243.269 299.834 241.925 299.745 240.662 299.569C235.075 298.791 228.898 299.296 222.783 300.444C216.678 301.59 210.727 303.359 205.629 305.05C204.087 305.561 202.489 305.956 200.96 306.333L200.628 306.415C198.978 306.823 197.409 307.222 195.926 307.753C194.576 308.237 193.366 308.826 192.124 309.463C191.901 309.577 191.677 309.693 191.45 309.81L191.44 309.815L191.439 309.816C190.423 310.341 189.362 310.89 188.222 311.39C186.071 312.332 183.909 313.326 181.726 314.33C177.058 316.476 172.295 318.667 167.348 320.484C158.019 323.91 148.405 324.378 138.717 320.921C133.609 319.098 128.463 317.367 123.222 315.705C122.485 315.471 121.693 315.242 120.863 315.003L120.751 314.971C119.961 314.743 119.138 314.506 118.328 314.255C116.64 313.73 114.927 313.119 113.538 312.328C109.849 310.227 106.178 308.182 102.488 306.125L102.485 306.124L102.483 306.122C100.097 304.793 97.7031 303.459 95.2903 302.102C94.1253 301.447 93.0098 300.79 91.9052 300.141C90.2049 299.14 88.53 298.155 86.7402 297.213C86.106 296.878 85.537 296.448 85.0522 296.081C84.9389 295.995 84.8301 295.913 84.7262 295.836C84.1231 295.391 83.623 295.078 83.0726 294.91C82.5521 294.751 82.0688 294.59 81.6483 294.45C81.4501 294.384 81.2655 294.322 81.0979 294.268C80.5433 294.088 80.1205 293.968 79.7197 293.899C79.0159 293.777 78.2118 293.781 76.6826 294.222C75.8246 294.469 74.9491 294.741 74.0574 295.017C72.172 295.601 70.2138 296.207 68.1953 296.659C63.9193 297.617 60.7484 299.348 57.6069 301.326C56.9992 301.709 56.3902 302.103 55.7733 302.502C53.243 304.138 50.5794 305.86 47.3335 307.25C45.579 308.001 44.139 308.982 42.6549 310.052C42.4796 310.178 42.3034 310.306 42.1258 310.435L42.1249 310.435C40.8277 311.376 39.4581 312.37 37.8541 313.213C34.9072 314.762 31.3238 315.646 27.9748 316.472L27.9737 316.472C27.1884 316.666 26.4152 316.857 25.6669 317.052C24.5536 317.343 23.2083 317.774 21.6739 318.267L21.2301 318.409C19.5334 318.953 17.6525 319.548 15.7431 320.049C13.8377 320.548 11.8554 320.967 9.94903 321.146C8.04451 321.324 6.12824 321.27 4.42577 320.762C3.84216 320.588 3.5917 320.146 3.86633 319.776C3.94596 319.669 4.06099 319.579 4.19843 319.51L3.29575 313.402Z" fill="#7A13AE"/>
</svg>
